<?xml version="1.0" encoding="UTF-8" standalone="no"?>
<!-- Created with Inkscape (http://www.inkscape.org/) -->

<svg
   xmlns:dc="http://purl.org/dc/elements/1.1/"
   xmlns:cc="http://creativecommons.org/ns#"
   xmlns:rdf="http://www.w3.org/1999/02/22-rdf-syntax-ns#"
   xmlns:svg="http://www.w3.org/2000/svg"
   xmlns="http://www.w3.org/2000/svg"
   xmlns:sodipodi="http://sodipodi.sourceforge.net/DTD/sodipodi-0.dtd"
   xmlns:inkscape="http://www.inkscape.org/namespaces/inkscape"
   width="282.22223mm"
   height="71.706459mm"
   viewBox="0 0 1000 254.078"
   id="svg5891"
   version="1.1"
   inkscape:version="0.91 r13725"
   sodipodi:docname="Indofood_logo.svg">
  <defs
     id="defs5893" />
  <sodipodi:namedview
     id="base"
     pagecolor="#ffffff"
     bordercolor="#666666"
     borderopacity="1.0"
     inkscape:pageopacity="0.0"
     inkscape:pageshadow="2"
     inkscape:zoom="1"
     inkscape:cx="17.456342"
     inkscape:cy="8.193755"
     inkscape:document-units="px"
     inkscape:current-layer="layer1"
     showgrid="false"
     fit-margin-top="0"
     fit-margin-left="0"
     fit-margin-right="0"
     fit-margin-bottom="0"
     inkscape:window-width="1366"
     inkscape:window-height="705"
     inkscape:window-x="-8"
     inkscape:window-y="-8"
     inkscape:window-maximized="1" />
  <metadata
     id="metadata5896">
    <rdf:RDF>
      <cc:Work
         rdf:about="">
        <dc:format>image/svg+xml</dc:format>
        <dc:type
           rdf:resource="http://purl.org/dc/dcmitype/StillImage" />
        <dc:title></dc:title>
      </cc:Work>
    </rdf:RDF>
  </metadata>
  <g
     inkscape:label="Layer 1"
     inkscape:groupmode="layer"
     id="layer1"
     transform="translate(-562.93346,-357.71288)">
    <g
       id="g340"
       transform="matrix(14.609349,0,0,-14.609349,591.78692,509.86488)">
      <path
         d="m 0,0 c -0.217,-2.009 -1.975,-1.689 -1.975,-1.689 l 0.157,-0.856 6.124,0 0.282,0.821 C 2.701,-1.78 3.23,-0.32 3.23,-0.32 c 0,0 1.548,8.089 1.56,8.124 0.24,1.232 1.857,0.952 1.857,0.952 l -0.169,0.897 -6.096,0 -0.338,-0.886 c 0,0 1.653,0.192 1.456,-1.137 -0.004,-0.014 -1.517,-7.735 -1.517,-7.735"
         style="fill:#01539c;fill-opacity:1;fill-rule:nonzero;stroke:none"
         id="path342"
         inkscape:connector-curvature="0" />
    </g>
    <g
       id="g344"
       transform="matrix(14.609349,0,0,-14.609349,726.78315,420.91031)">
      <path
         d="m 0,0 0.217,1.068 -4.099,-0.537 -0.12,-0.665 c 0,0 1.387,0.349 0.907,-1.501 l -1.052,-5.377 2.773,0 1.112,5.64 c 0,0 0.101,0.807 1.185,0.841 0,0 1.199,-0.019 0.813,-1.679 l -0.971,-4.819 4.106,0.511 0.108,0.642 c 0,0 -1.441,-0.258 -1.008,1.039 l 0.665,3.566 c 0,0 0.335,2.033 -0.971,2.351 C 3.665,1.08 2.194,1.702 0,0"
         style="fill:#01539c;fill-opacity:1;fill-rule:nonzero;stroke:none"
         id="path346"
         inkscape:connector-curvature="0" />
    </g>
    <g
       id="g348"
       transform="matrix(14.609349,0,0,-14.609349,859.99236,524.13412)">
      <path
         d="m 0,0 c 0,0 -2.208,-0.348 -3.175,0.604 0,0 -1.764,1.344 -0.061,4.634 1.703,3.289 5.478,2.854 5.478,2.854 L 2.44,9.134 c 0,0 0.188,0.952 -1.415,0.779 l 0.221,0.706 4.357,0.555 -1.774,-9.012 c 0,0 -0.389,-1.111 1.403,-0.984 L 5.12,0.562 0.676,-0.014 2.053,7.068 c 0,0 -1.564,0.407 -2.513,-1.885 0,0 -1.76,-4.23 0.753,-4.504 L 0.189,0.056 0,0 Z"
         style="fill:#01539c;fill-opacity:1;fill-rule:nonzero;stroke:none"
         id="path350"
         inkscape:connector-curvature="0" />
    </g>
    <g
       id="g352"
       transform="matrix(14.609349,0,0,-14.609349,1021.9434,470.27471)">
      <path
         d="m 0,0 c -0.654,-3.493 -2.119,-2.972 -2.119,-2.972 0,0 -1.315,0.158 -0.58,3.705 0.726,3.472 1.982,3.004 1.982,3.004 C -0.07,3.697 0.56,2.905 0,0 M -0.83,4.684 C -3.287,4.699 -5.525,2.781 -5.825,0.39 c -0.3,-2.386 1.447,-4.33 3.907,-4.341 2.459,-0.01 4.698,1.914 4.996,4.303 0.299,2.383 -1.445,4.322 -3.908,4.332"
         style="fill:#01539c;fill-opacity:1;fill-rule:nonzero;stroke:none"
         id="path354"
         inkscape:connector-curvature="0" />
    </g>
    <g
       id="g356"
       transform="matrix(14.609349,0,0,-14.609349,1227.8417,470.27471)">
      <path
         d="m 0,0 c -0.665,-3.493 -2.122,-2.972 -2.122,-2.972 0,0 -1.317,0.158 -0.582,3.705 0.72,3.472 1.983,3.004 1.983,3.004 C -0.073,3.697 0.556,2.905 0,0 M -0.833,4.684 C -3.294,4.699 -5.53,2.781 -5.831,0.39 c -0.298,-2.386 1.452,-4.33 3.908,-4.341 2.464,-0.01 4.704,1.914 4.999,4.303 0.302,2.383 -1.447,4.322 -3.909,4.332"
         style="fill:#01539c;fill-opacity:1;fill-rule:nonzero;stroke:none"
         id="path358"
         inkscape:connector-curvature="0" />
    </g>
    <g
       id="g360"
       transform="matrix(14.609349,0,0,-14.609349,1369.4204,470.27471)">
      <path
         d="m 0,0 c -0.665,-3.493 -2.123,-2.972 -2.123,-2.972 0,0 -1.313,0.158 -0.579,3.705 C -1.98,4.205 -0.72,3.737 -0.72,3.737 -0.073,3.697 0.553,2.905 0,0 M -0.833,4.684 C -3.294,4.699 -5.532,2.781 -5.829,0.39 c -0.299,-2.386 1.449,-4.33 3.91,-4.341 2.458,-0.01 4.696,1.914 4.994,4.303 0.301,2.383 -1.447,4.322 -3.908,4.332"
         style="fill:#01539c;fill-opacity:1;fill-rule:nonzero;stroke:none"
         id="path362"
         inkscape:connector-curvature="0" />
    </g>
    <g
       id="g364"
       transform="matrix(14.609349,0,0,-14.609349,1132.8646,419.87713)">
      <path
         d="m 0,0 c 0,0 0.046,-0.205 -0.84,-4.279 -0.883,-4.067 -1.789,-5.262 -1.789,-5.262 -2.212,-4.112 -5.6,-3.572 -5.6,-3.572 -1.64,0 -3.071,1.38 -3.071,2.765 0,1.425 1.303,2.495 2.945,2.495 l 3.394,0.004 c 0,0 0.059,0.028 -0.214,-0.862 l -3.252,0 c -1.132,0 -1.821,-1.009 -1.821,-1.724 0,-0.85 0.997,-1.759 1.998,-1.759 0,0 0.986,-0.101 1.694,0.23 1.242,0.584 1.905,2.396 1.905,2.396 0.416,0.846 1.033,4.049 1.019,4.004 0,0 0.362,1.537 0.93,5.52 l -0.143,0 -1.344,0 0.234,0.924 c 1.082,0.157 1.498,0.863 1.498,0.863 0,0 1.259,1.777 2.081,2.213 1.91,1 3.379,-0.828 3.379,-0.828 L 1.083,1.426 c -0.648,0.681 -0.9,0.851 -0.9,0.851 -0.63,0.61 -1.118,-0.1 -1.118,-0.1 C -1.401,0.891 0.183,0.951 0.183,0.951 l 1.827,0 L 1.763,0 0,0 Z"
         style="fill:#01539c;fill-opacity:1;fill-rule:nonzero;stroke:none"
         id="path366"
         inkscape:connector-curvature="0" />
    </g>
    <g
       id="g368"
       transform="matrix(14.609349,0,0,-14.609349,976.72457,534.54182)">
      <path
         d="m 0,0 -20.887,0 -0.259,-0.873 20.206,0 c 0,0 0.158,0.553 0.94,0.873"
         style="fill:#01539c;fill-opacity:1;fill-rule:nonzero;stroke:none"
         id="path370"
         inkscape:connector-curvature="0" />
    </g>
    <g
       id="g372"
       transform="matrix(14.609349,0,0,-14.609349,1117.4827,534.54182)">
      <path
         d="m 0,0 30.02,0 -0.202,-0.873 -30.129,0 c 0,0 0.247,0.395 0.311,0.873"
         style="fill:#01539c;fill-opacity:1;fill-rule:nonzero;stroke:none"
         id="path374"
         inkscape:connector-curvature="0" />
    </g>
    <g
       id="g376"
       transform="matrix(14.609349,0,0,-14.609349,1481.1211,524.13412)">
      <path
         d="m 0,0 c 0,0 -2.211,-0.348 -3.183,0.604 0,0 -1.758,1.344 -0.054,4.634 1.701,3.289 5.472,2.854 5.472,2.854 l 0.207,1.042 c 0,0 0.185,0.952 -1.42,0.779 L 1.245,10.619 5.6,11.174 3.827,2.162 c 0,0 -0.389,-1.111 1.403,-0.984 L 5.12,0.562 0.677,-0.014 2.05,7.068 c 0,0 -1.562,0.407 -2.514,-1.885 0,0 -1.757,-4.23 0.758,-4.504 L 0.188,0.056 0,0 Z"
         style="fill:#01539c;fill-opacity:1;fill-rule:nonzero;stroke:none"
         id="path378"
         inkscape:connector-curvature="0" />
    </g>
  </g>
</svg>
