<svg xmlns="http://www.w3.org/2000/svg" xmlns:xlink="http://www.w3.org/1999/xlink" version="1.1" width="731.486pt" height="178.491pt" viewBox="0 0 731.486 178.491">
<defs>
<clipPath id="clip_0">
<path transform="matrix(1,0,0,-1,0,178.491)" d="M0 178.491H731.486V0H0Z"/>
</clipPath>
</defs>
<g id="layer_1" data-name="Layer 1">
<path transform="matrix(1,0,0,-1,182.0863,54.122697)" d="M0 0H18.022L26.507-46.822 39.007 0H54.854L69.692-47.641 78.372 0H95.497L80.846-70.06H61.073L47.927-26.349 34.476-70.06H13.733Z" fill="#231f20"/>
<path transform="matrix(1,0,0,-1,704.9643,124.1823)" d="M0 0H-18.023L-26.491 46.991-39.005 0H-54.857L-69.634 47.63-78.369 0H-95.498L-80.846 70.06H-61.075L-47.931 26.314-34.469 70.06H-13.733Z" fill="#231f20"/>
<g clip-path="url(#clip_0)">
<path transform="matrix(1,0,0,-1,315.3275,111.5299)" d="M0 0C11.206 0 15.663 10.841 15.663 22.379 15.663 34.534 11.206 44.766 0 44.766-11.204 44.766-15.662 34.534-15.662 22.379-15.662 10.841-11.204 0 0 0M0 58.62C22.805 58.62 34.701 44.861 34.701 22.379 34.701 .097 22.608-13.849 0-13.849-22.598-13.849-34.691 .097-34.691 22.379-34.691 44.861-22.797 58.62 0 58.62" fill="#231f20"/>
<path transform="matrix(1,0,0,-1,360.3393,54.112398)" d="M0 0H18.441V-56.211H46.992V-70.055H0Z" fill="#231f20"/>
<path transform="matrix(1,0,0,-1,414.9652,54.112398)" d="M0 0H46.279V-13.252H18.435V-28.614H45.092V-41.855H18.435V-70.055H0Z" fill="#231f20"/>
<path transform="matrix(1,0,0,-1,489.3217,83.2296)" d="M0 0H4.866C10.809 0 18.345 .204 18.345 8.136 18.345 14.656 11.9 15.865 4.866 15.865H0ZM-18.436 29.117H14.476C26.772 29.117 36.784 23.5 36.784 11.445 36.784 2.108 32.421-4.111 23.5-6.218V-6.422C29.441-8.029 29.846-13.35 33.315-21.881L40.048-40.938H20.821L16.861-28.3C13.087-16.258 10.714-13.243 3.873-13.243H0V-40.938H-18.436Z" fill="#231f20"/>
<path transform="matrix(1,0,0,-1,568.6098,68.573398)" d="M0 0H-.193L-9.114-27.394H8.226ZM-11.307 14.461H11.303L37.968-55.594H17.744L12.589-40.649H-13.379L-18.835-55.594H-37.575Z" fill="#231f20"/>
<path transform="matrix(1,0,0,-1,126.6845,115.082599)" d="M0 0-13.584 4.303 2.657 9.091 17.863 3.89ZM-21.695-19.163-21.223 .187-3.044-5.571-.77-28.354ZM-77.227-5.565-59.042 .187-58.577-19.159-79.506-28.345ZM-98.121 3.901-82.92 9.091-66.689 4.306-80.273 .009ZM-87.748 23.191-74.929 27.947-84.888 15.005-99.488 10.02ZM-103.826 46.543-81.47 51.41-70.723 36.154-88.647 29.504ZM-28.61 73.099-40.129 58.381-51.644 73.104-40.132 92.815ZM23.568 46.528 8.387 29.494-9.539 36.152 1.216 51.402ZM-35.09 24.386-15.532 30.976-2.517 14.063-23.025 8.016ZM-52.657-6.016-43.248-19.743V-35.809L-52.315-20.294ZM-45.173 24.386-57.238 8.016-77.747 14.063-64.732 30.976ZM-77.094 56.017-78.9 74.088-69.708 61.677-69.246 44.875ZM-37.016 51.125-16.886 58.283-17.474 36.899-37.016 30.315ZM-62.79 36.899-63.378 58.283-43.248 51.125V30.315ZM-40.132-13.267-52.204 4.346-40.132 20.726-28.06 4.346ZM-3.16 56.012-11.018 44.868-10.557 61.674-1.351 74.088ZM-22.885 70.307-6.624 77.446-15.585 65.36-31.063 59.856ZM-49.197 59.855-64.68 65.36-73.639 77.457-57.376 70.313ZM-27.958-20.299-37.016-35.806V-19.743L-27.61-6.021ZM19.215 10.014 4.625 15.004-5.328 27.938 7.484 23.179ZM13.472 25.831 35.321 50.344 3.238 57.34 6.503 90.015-23.562 76.815-40.132 105.17-56.692 76.818-86.754 90.025-83.492 57.349-115.578 50.362-93.735 25.842-115.582 1.331-83.501-5.665-86.767-38.339-56.701-25.143-40.132-53.496-23.572-25.146 6.491-38.351 3.231-5.676 35.317 1.312Z" fill="#dd1100"/>
<path transform="matrix(1,0,0,-1,136.7333,125.58659)" d="M0 0C.42 0 .714 .154 .714 .519 .714 .84 .546 1.051 .042 1.051H-.406V0ZM-.854 1.442H.112C.658 1.442 1.19 1.246 1.19 .546 1.19 .196 .952-.141 .63-.238L1.316-1.443H.798L.252-.378H-.406V-1.443H-.854ZM2.213-.057C2.213 1.288 1.274 2.283 .098 2.283-1.079 2.283-2.017 1.288-2.017-.057-2.017-1.387-1.079-2.354 .098-2.354 1.274-2.354 2.213-1.387 2.213-.057M-2.452-.057C-2.452 1.583-1.289 2.675 .098 2.675 1.499 2.675 2.647 1.583 2.647-.057 2.647-1.681 1.499-2.76 .098-2.76-1.289-2.76-2.452-1.681-2.452-.057" fill="#808285"/>
<path transform="matrix(1,0,0,-1,697.7094,56.524499)" d="M0 0C.43 0 .732 .158 .732 .531 .732 .86 .56 1.076 .044 1.076H-.416V0ZM-.874 1.478H.115C.674 1.478 1.22 1.276 1.22 .56 1.22 .201 .976-.144 .646-.243L1.348-1.477H.818L.258-.387H-.416V-1.477H-.874ZM2.266-.057C2.266 1.319 1.306 2.338 .101 2.338-1.104 2.338-2.064 1.319-2.064-.057-2.064-1.419-1.104-2.409 .101-2.409 1.306-2.409 2.266-1.419 2.266-.057M-2.51-.057C-2.51 1.621-1.319 2.739 .101 2.739 1.535 2.739 2.712 1.621 2.712-.057 2.712-1.721 1.535-2.825 .101-2.825-1.319-2.825-2.51-1.721-2.51-.057" fill="#808285"/>
</g>
</g>
</svg>
