<svg width="787" height="381" viewBox="0 0 787 381" fill="none" xmlns="http://www.w3.org/2000/svg">
<g filter="url(#filter0_d_3301_680)">
<path d="M179.31 198.57C179.31 237.441 152.02 284.709 118.356 304.145C84.6927 323.581 57.4028 307.825 57.4028 268.953C57.4028 230.082 84.6927 182.814 118.356 163.378C152.02 143.943 179.31 159.698 179.31 198.57Z" fill="#FFF1DB"/>
<path d="M57.4028 268.953C57.4028 286.966 63.3544 301.543 75.2563 308.414L44.7795 290.819C32.8776 283.947 26.9266 269.37 26.9266 251.357L57.4028 268.953Z" fill="#E7AD8C"/>
<path d="M57.4034 268.956C57.4034 230.084 84.6933 182.817 118.357 163.381L87.8802 145.785C54.2165 165.221 26.9266 212.488 26.9266 251.36L57.4034 268.956Z" fill="#E7AD8C"/>
<path d="M161.458 159.11C149.556 152.238 133.957 154.373 118.357 163.379L87.8806 145.783C103.48 136.777 119.079 134.642 130.981 141.514L161.458 159.11Z" fill="#E7AD8C"/>
<path d="M123.797 191.012C123.797 252.788 80.427 327.906 26.9277 358.794C-26.5716 389.682 -69.9413 364.643 -69.9413 302.867C-69.9413 241.091 -26.5716 165.973 26.9277 135.085C80.427 104.197 123.797 129.236 123.797 191.012Z" fill="#FFF1DB"/>
<path d="M-69.942 302.868C-69.942 331.494 -60.4846 354.66 -41.5697 365.58L-90.0042 337.617C-108.919 326.696 -118.377 303.53 -118.377 274.904L-69.942 302.868Z" fill="#E7AD8C"/>
<path d="M-69.942 302.866C-69.942 241.09 -26.5723 165.972 26.927 135.084L-21.5075 107.12C-75.0068 138.008 -118.377 213.127 -118.377 274.902L-69.942 302.866Z" fill="#E7AD8C"/>
<path d="M95.4236 128.3C76.5087 117.38 51.7177 120.772 26.9268 135.085L-21.5077 107.122C3.28323 92.8085 28.0742 89.416 46.989 100.336L95.4236 128.3Z" fill="#E7AD8C"/>
<path d="M-18.6165 246.458C-18.6165 285.329 -45.9064 332.597 -79.5701 352.033C-113.234 371.469 -140.524 355.713 -140.524 316.841C-140.524 277.97 -113.234 230.702 -79.5701 211.266C-45.9064 191.83 -18.6165 207.586 -18.6165 246.458Z" fill="#FFF1DB"/>
<path d="M-140.523 316.84C-140.523 334.853 -134.572 349.43 -122.67 356.301L-153.147 338.706C-165.049 331.834 -171 317.257 -171 299.244L-140.523 316.84Z" fill="#E7AD8C"/>
<path d="M-140.523 316.84C-140.523 277.969 -113.234 230.702 -79.5701 211.266L-110.046 193.67C-143.71 213.106 -171 260.373 -171 299.244L-140.523 316.84Z" fill="#E7AD8C"/>
<path d="M-36.4684 206.997C-48.3704 200.125 -63.9707 202.26 -79.5701 211.266L-110.046 193.67C-94.4469 184.664 -78.8472 182.529 -66.9452 189.401L-36.4684 206.997Z" fill="#E7AD8C"/>
<path d="M782.803 86.7028C782.803 100.09 773.404 116.369 761.811 123.062C750.217 129.756 740.818 124.33 740.818 110.943C740.818 97.5553 750.217 81.2765 761.811 74.5829C773.404 67.8893 782.803 73.3155 782.803 86.7028Z" fill="#FFF1DB"/>
<path d="M740.818 110.943C740.818 117.146 742.868 122.166 746.967 124.533L736.471 118.473C732.372 116.106 730.323 111.086 730.323 104.883L740.818 110.943Z" fill="#E7AD8C"/>
<path d="M740.819 110.944C740.819 97.5563 750.217 81.2775 761.811 74.5839L751.315 68.5239C739.721 75.2176 730.323 91.4964 730.323 104.884L740.819 110.944Z" fill="#E7AD8C"/>
<path d="M776.654 73.1127C772.555 70.7462 767.183 71.4812 761.811 74.5829L751.314 68.5232C756.687 65.4214 762.059 64.6862 766.158 67.0528L776.654 73.1127Z" fill="#E7AD8C"/>
<path d="M763.685 84.1C763.685 105.375 748.749 131.246 730.324 141.884C711.899 152.521 696.962 143.898 696.962 122.622C696.962 101.347 711.899 75.4764 730.324 64.8387C748.749 54.2011 763.685 62.8246 763.685 84.1Z" fill="#FFF1DB"/>
<path d="M696.962 122.622C696.962 132.481 700.219 140.46 706.733 144.221L690.053 134.59C683.538 130.829 680.281 122.851 680.281 112.992L696.962 122.622Z" fill="#E7AD8C"/>
<path d="M696.962 122.622C696.962 101.347 711.899 75.4764 730.324 64.8387L713.643 55.2079C695.218 65.8456 680.281 91.7169 680.281 112.992L696.962 122.622Z" fill="#E7AD8C"/>
<path d="M753.913 62.5021C747.399 58.7411 738.862 59.9094 730.324 64.8387L713.643 55.2079C722.181 50.2785 730.718 49.1105 737.233 52.8715L753.913 62.5021Z" fill="#E7AD8C"/>
<path d="M714.638 103.195C714.638 116.583 705.239 132.861 693.645 139.555C682.051 146.249 672.653 140.822 672.653 127.435C672.653 114.048 682.051 97.769 693.645 91.0754C705.239 84.3817 714.638 89.808 714.638 103.195Z" fill="#FFF1DB"/>
<path d="M672.653 127.435C672.653 133.639 674.703 138.659 678.802 141.025L668.306 134.965C664.207 132.599 662.157 127.579 662.157 121.375L672.653 127.435Z" fill="#E7AD8C"/>
<path d="M672.653 127.435C672.653 114.048 682.051 97.769 693.645 91.0754L683.149 85.0156C671.556 91.7093 662.157 107.988 662.157 121.375L672.653 127.435Z" fill="#E7AD8C"/>
<path d="M708.489 89.605C704.39 87.2384 699.018 87.9736 693.645 91.0754L683.149 85.0156C688.522 81.9139 693.893 81.1784 697.992 83.545L708.489 89.605Z" fill="#E7AD8C"/>
<path d="M281.071 69.0798C281.071 94.5289 298.937 125.475 320.977 138.199C343.016 150.924 360.883 140.608 360.883 115.159C360.883 89.7104 343.016 58.7646 320.977 46.04C298.937 33.3155 281.071 43.6308 281.071 69.0798Z" fill="#FFF1DB"/>
<path d="M360.883 115.159C360.883 126.952 356.986 136.496 349.194 140.994L369.147 129.475C376.939 124.976 380.836 115.432 380.836 103.639L360.883 115.159Z" fill="#E7AD8C"/>
<path d="M360.883 115.161C360.883 89.712 343.016 58.7662 320.976 46.0417L340.929 34.5218C362.969 47.2463 380.836 78.1921 380.836 103.641L360.883 115.161Z" fill="#E7AD8C"/>
<path d="M292.758 43.2457C300.55 38.7469 310.764 40.1453 320.976 46.0417L340.929 34.5218C330.717 28.6254 320.503 27.227 312.711 31.7258L292.758 43.2457Z" fill="#E7AD8C"/>
<path d="M317.417 64.1307C317.417 104.575 345.811 153.755 380.836 173.977C415.862 194.199 444.256 177.806 444.256 137.361C444.256 96.9172 415.862 47.7374 380.836 27.5153C345.811 7.29318 317.417 23.6865 317.417 64.1307Z" fill="#FFF1DB"/>
<path d="M444.256 137.361C444.256 156.103 438.064 171.27 425.681 178.42L457.391 160.112C469.774 152.962 475.966 137.796 475.966 119.054L444.256 137.361Z" fill="#E7AD8C"/>
<path d="M444.256 137.361C444.256 96.9172 415.862 47.7374 380.836 27.5153L412.546 9.20692C447.572 29.4291 475.966 78.6089 475.966 119.053L444.256 137.361Z" fill="#E7AD8C"/>
<path d="M335.992 23.0734C348.375 15.9238 364.606 18.1446 380.836 27.5153L412.546 9.20692C396.316 -0.163774 380.085 -2.38388 367.702 4.76572L335.992 23.0734Z" fill="#E7AD8C"/>
<path d="M410.652 100.431C410.652 125.88 428.518 156.826 450.558 169.551C472.597 182.275 490.464 171.96 490.464 146.511C490.464 121.062 472.597 90.116 450.558 77.3915C428.518 64.667 410.652 74.9823 410.652 100.431Z" fill="#FFF1DB"/>
<path d="M490.464 146.511C490.464 158.304 486.568 167.846 478.776 172.345L498.729 160.825C506.521 156.326 510.417 146.783 510.417 134.99L490.464 146.511Z" fill="#E7AD8C"/>
<path d="M490.464 146.511C490.464 121.062 472.597 90.116 450.558 77.3915L470.511 65.8715C492.55 78.596 510.417 109.541 510.417 134.99L490.464 146.511Z" fill="#E7AD8C"/>
<path d="M422.34 74.5963C430.132 70.0975 440.345 71.4951 450.558 77.3915L470.511 65.8715C460.298 59.9751 450.086 58.5776 442.293 63.0764L422.34 74.5963Z" fill="#E7AD8C"/>
</g>
<defs>
<filter id="filter0_d_3301_680" x="-175" y="0.541626" width="961.803" height="379.483" filterUnits="userSpaceOnUse" color-interpolation-filters="sRGB">
<feFlood flood-opacity="0" result="BackgroundImageFix"/>
<feColorMatrix in="SourceAlpha" type="matrix" values="0 0 0 0 0 0 0 0 0 0 0 0 0 0 0 0 0 0 127 0" result="hardAlpha"/>
<feOffset dy="4"/>
<feGaussianBlur stdDeviation="2"/>
<feComposite in2="hardAlpha" operator="out"/>
<feColorMatrix type="matrix" values="0 0 0 0 0 0 0 0 0 0 0 0 0 0 0 0 0 0 0.25 0"/>
<feBlend mode="normal" in2="BackgroundImageFix" result="effect1_dropShadow_3301_680"/>
<feBlend mode="normal" in="SourceGraphic" in2="effect1_dropShadow_3301_680" result="shape"/>
</filter>
</defs>
</svg>
