<svg width="817" height="746" viewBox="0 0 817 746" fill="none" xmlns="http://www.w3.org/2000/svg">
<path d="M331.965 0L439.915 62.3252L362.808 106.843L254.857 44.518L331.965 0Z" fill="url(#paint0_linear_3305_786)"/>
<path d="M254.857 44.518L362.808 106.843V124.485L254.857 62.1595V44.518Z" fill="url(#paint1_linear_3305_786)"/>
<path d="M362.808 106.843L439.915 62.3252V273.044L362.808 317.562V106.843Z" fill="url(#paint2_linear_3305_786)"/>
<path d="M254.856 59.371L362.806 121.696L344.815 132.084L236.864 69.7585L254.856 59.371Z" fill="url(#paint3_linear_3305_786)"/>
<path d="M236.864 69.7585L344.815 132.084V146.838L236.865 84.5129L236.864 69.7585Z" fill="url(#paint4_linear_3305_786)"/>
<path d="M344.815 132.084L362.806 121.696V317.575L344.814 327.963L344.815 132.084Z" fill="url(#paint5_linear_3305_786)"/>
<path d="M236.865 84.5918L344.815 146.917L326.824 157.305L218.873 94.9793L236.865 84.5918Z" fill="url(#paint6_linear_3305_786)"/>
<path d="M218.873 94.9793L326.824 157.305V338.345L218.873 276.019V94.9793Z" fill="url(#paint7_linear_3305_786)"/>
<path d="M326.824 157.305L344.815 146.917L344.816 327.957L326.824 338.345V157.305Z" fill="url(#paint8_linear_3305_786)"/>
<path d="M418.863 91.7258L434.262 82.8349V118.399L418.863 127.289V91.7258Z" fill="#D9D9D9"/>
<path d="M429.129 79.8712L434.262 82.8349V118.399L429.129 115.435V79.8712Z" fill="#F49C86"/>
<path d="M413.73 124.326L429.129 115.435L434.262 118.399L418.863 127.289L413.73 124.326Z" fill="#FBBEAE"/>
<path d="M413.73 88.7621L429.129 79.8712V115.435L413.73 124.326V88.7621Z" fill="#DE846E"/>
<path d="M395.281 104.827L410.681 95.9359V131.5L395.281 140.39V104.827Z" fill="#D9D9D9"/>
<path d="M405.547 92.9721L410.681 95.9359V131.5L405.547 128.536V92.9721Z" fill="#F49C86"/>
<path d="M390.148 137.427L405.547 128.536L410.681 131.5L395.281 140.39L390.148 137.427Z" fill="#FBBEAE"/>
<path d="M390.148 101.863L405.547 92.9721V128.536L390.148 137.427V101.863Z" fill="#DE846E"/>
<path d="M371.699 117.928L387.099 109.037V144.6L371.699 153.491V117.928Z" fill="#D9D9D9"/>
<path d="M381.966 106.073L387.099 109.037V144.6L381.966 141.637V106.073Z" fill="#F49C86"/>
<path d="M366.567 150.528L381.966 141.637L387.099 144.6L371.699 153.491L366.567 150.528Z" fill="#FBBEAE"/>
<path d="M366.567 114.964L381.966 106.073V141.637L366.567 150.528V114.964Z" fill="#DE846E"/>
<path d="M411.163 162.382L426.563 153.491V189.055L411.163 197.946V162.382Z" fill="#D9D9D9"/>
<path d="M421.43 150.528L426.563 153.491V189.055L421.43 186.091V150.528Z" fill="#F49C86" fill-opacity="0.75"/>
<path d="M406.03 194.982L421.43 186.091L426.563 189.055L411.163 197.946L406.03 194.982Z" fill="#FBBEAE" fill-opacity="0.75"/>
<path d="M406.03 159.418L421.43 150.528V186.091L406.03 194.982V159.418Z" fill="#DE846E" fill-opacity="0.75"/>
<path d="M387.582 175.483L402.981 166.592V202.156L387.582 211.047V175.483Z" fill="#D9D9D9"/>
<path d="M397.848 163.629L402.981 166.592V202.156L397.848 199.192V163.629Z" fill="#F49C86" fill-opacity="0.75"/>
<path d="M382.448 208.083L397.848 199.192L402.981 202.156L387.582 211.047L382.448 208.083Z" fill="#FBBEAE" fill-opacity="0.75"/>
<path d="M382.448 172.519L397.848 163.629V199.192L382.448 208.083V172.519Z" fill="#DE846E" fill-opacity="0.75"/>
<path d="M364 188.584L379.399 179.693V215.256L364 224.147V188.584Z" fill="#D9D9D9"/>
<path d="M374.266 176.729L379.399 179.693V215.256L374.266 212.293V176.729Z" fill="#F49C86" fill-opacity="0.75"/>
<path d="M358.866 221.184L374.266 212.293L379.399 215.256L364 224.147L358.866 221.184Z" fill="#FBBEAE" fill-opacity="0.75"/>
<path d="M358.866 185.62L374.266 176.729V212.293L358.866 221.184V185.62Z" fill="#DE846E" fill-opacity="0.75"/>
<path d="M403.465 229.378L418.864 220.487V256.051L403.465 264.941V229.378Z" fill="#D9D9D9"/>
<path d="M413.731 217.523L418.864 220.487V256.051L413.731 253.087V217.523Z" fill="#F49C86" fill-opacity="0.5"/>
<path d="M398.331 261.978L413.731 253.087L418.864 256.051L403.465 264.941L398.331 261.978Z" fill="#FBBEAE" fill-opacity="0.5"/>
<path d="M398.331 226.414L413.731 217.523V253.087L398.331 261.978V226.414Z" fill="#DE846E" fill-opacity="0.5"/>
<path d="M379.882 242.479L395.281 233.588V269.151L379.882 278.042V242.479Z" fill="#D9D9D9"/>
<path d="M390.148 230.624L395.281 233.588V269.151L390.148 266.188V230.624Z" fill="#F49C86" fill-opacity="0.5"/>
<path d="M374.748 275.079L390.148 266.188L395.281 269.151L379.882 278.042L374.748 275.079Z" fill="#FBBEAE" fill-opacity="0.5"/>
<path d="M374.748 239.515L390.148 230.624V266.188L374.748 275.079V239.515Z" fill="#DE846E" fill-opacity="0.5"/>
<path d="M356.301 255.58L371.7 246.689V282.253L356.301 291.144V255.58Z" fill="#D9D9D9"/>
<path d="M366.567 243.726L371.7 246.689V282.253L366.567 279.289V243.726Z" fill="#F49C86" fill-opacity="0.5"/>
<path d="M351.167 288.18L366.567 279.289L371.7 282.253L356.301 291.144L351.167 288.18Z" fill="#FBBEAE" fill-opacity="0.5"/>
<path d="M351.167 252.617L366.567 243.726V279.289L351.167 288.18V252.617Z" fill="#DE846E" fill-opacity="0.5"/>
<path d="M816.066 419.162L517.871 246.999L0.999818 545.415L299.195 717.578L816.066 419.162Z" fill="#D9D9D9"/>
<path d="M816.066 419.162L517.871 246.999L516.961 274.881L815.156 447.044L816.066 419.162Z" fill="#606060"/>
<path d="M517.886 246.994L1.01487 545.41L0.0898438 573.297L516.46 307.5L517.886 246.994Z" fill="#4A5051"/>
<path d="M240.723 433.407V407.256L300.036 372.577V398.728L240.723 433.407Z" fill="#373B3C"/>
<path d="M815.156 447.044L516.961 274.881L0.0898438 573.297L298.285 745.46L815.156 447.044Z" fill="#272829"/>
<path d="M815.156 447.044L516.961 274.881L0.0898438 573.297L298.285 745.46L815.156 447.044Z" fill="#1A909E" fill-opacity="0.5"/>
<path d="M815.156 447.044L516.961 274.881L0.0898438 573.297L298.285 745.46L815.156 447.044Z" fill="url(#paint9_radial_3305_786)" fill-opacity="0.75"/>
<path d="M221.397 494.783C75.0346 561.98 75.1355 542.347 93.4813 524.13L259.06 428.533C443.343 415.463 408.125 463.66 367.481 489.393C242.266 584.556 230.904 558.725 240.875 533.914C300.978 469.359 252.932 480.928 221.397 494.783Z" fill="#84CCD3" fill-opacity="0.75"/>
<path d="M424.739 439.631C492.789 350.31 387.627 367.175 326.539 386.772L96.0759 519.83C50.9013 594.684 108.084 585.091 142.322 570.938C221.579 532.568 293.287 520.879 319.234 519.83C548.196 501.589 505.318 484.972 455.259 478.944C420.034 477.057 420.235 451.949 424.739 439.631Z" fill="#56C2CD" fill-opacity="0.75"/>
<path d="M207.416 581.914C179.724 576.474 147.664 599.84 135.095 612.203C97.5129 647.807 189.903 609.318 240.796 585.623C287.279 564.359 237.911 574.29 207.416 581.914Z" fill="#56C2CD" fill-opacity="0.75"/>
<path d="M540.858 476.99C546.477 478.366 553.38 469.266 556.129 464.543L529.757 454.424C531.116 461.372 535.239 475.613 540.858 476.99Z" fill="#E3C079"/>
<path d="M597.676 458.789C598.965 456.11 592.437 450.29 589.012 447.715L580.396 455.664C585.619 457.822 596.387 461.469 597.676 458.789Z" fill="#E3C079"/>
<path d="M597.11 386.481C589.481 384.054 587.203 390.48 587.017 393.996C581.463 409.521 626.038 418.816 637.004 425.729C645.776 431.259 643.251 422.027 640.892 416.719C631.389 398.575 607.744 389.001 597.11 386.481Z" fill="#E3C079"/>
<path d="M572.368 461.384C614.82 441.839 608.871 407.537 600.59 392.829C593.615 374.646 573.107 347.484 546.876 384.304C514.086 430.329 519.304 485.816 572.368 461.384Z" fill="#F1CE89"/>
<path d="M636.705 442.641C637.263 461.059 605.705 477.517 565.919 478.722C526.134 479.926 493.429 465.972 492.872 447.554C492.314 429.136 524.245 427.617 565.427 436.521C605.213 435.316 606.462 410.292 636.705 442.641Z" fill="url(#paint10_linear_3305_786)" fill-opacity="0.5"/>
<path d="M608.378 363.805C607.373 347.207 591.176 342.174 583.203 341.732C580.272 341.368 575.972 342.081 574.188 342.483C565.65 345.2 562.808 348.854 557.545 363.064C553.16 374.906 549.135 381.595 546.922 384.434C546.549 384.819 546.182 385.236 545.824 385.685C546.11 385.415 546.48 385.001 546.922 384.434C549.842 381.418 553.105 380.289 554.507 380.103C552.382 386.004 552.554 390.266 552.905 391.659C555.553 387.371 558.742 385.719 560.006 385.43C565.351 389.301 564.99 396.636 564.142 399.819C567.042 393.342 573.088 390.977 575.748 390.604C577.927 392.536 578.571 400.473 578.699 404.227C578.639 404.68 578.615 405.108 578.633 405.5C578.7 406.914 578.763 406.08 578.699 404.227C579.163 400.722 581.754 395.658 583.144 393.328L586.129 403.713C589.104 395.862 597.083 392.996 600.701 392.544C599.105 389.652 601.808 385.897 603.358 384.382C609.09 378.118 609.093 368.054 608.378 363.805Z" fill="#F0E698"/>
<path d="M594.292 378.452C593.546 379.615 592.534 379.137 592.03 377.384C591.526 375.632 591.722 373.268 592.467 372.105C593.213 370.942 594.226 371.42 594.729 373.173C595.233 374.925 595.037 377.289 594.292 378.452Z" fill="#4A5051"/>
<path d="M606.716 369.081C605.97 370.244 604.958 369.766 604.454 368.013C603.95 366.261 604.146 363.897 604.891 362.734C605.637 361.571 606.65 362.049 607.153 363.802C607.657 365.554 607.461 367.918 606.716 369.081Z" fill="#4A5051"/>
<path d="M598.266 372.518C599.606 368.076 603.859 368.457 605.818 369.202C612.025 372.587 614.403 381.428 614.815 385.425C614.318 385.023 612.184 384.236 607.623 384.303C603.063 384.371 600.324 383.375 599.524 382.869C598.546 381.269 596.926 376.959 598.266 372.518Z" fill="#D59B24"/>
<path d="M583.369 502.165C583.675 507.667 568.865 512.965 550.289 513.999C531.712 515.032 516.405 511.41 516.099 505.907C515.793 500.405 530.604 495.106 549.18 494.073C567.756 493.039 583.063 496.662 583.369 502.165Z" fill="url(#paint11_linear_3305_786)" fill-opacity="0.5"/>
<path d="M529.948 409.175C526.318 408.652 523.415 409.706 522.417 410.298L524.803 419.372C528.03 416.192 533.577 409.699 529.948 409.175Z" fill="#B84A5E"/>
<path d="M522.507 410.188C522.71 410.085 522.952 410.232 522.96 410.46C523.185 416.926 527.786 422.772 535.123 427.052C535.217 427.107 535.276 427.208 535.276 427.317V449.452C527.661 445.055 516.46 431.146 516.46 424.437V418.689C516.46 415.37 518.319 412.33 521.275 410.819L522.507 410.188Z" fill="#FFECEC"/>
<path d="M535.277 427.141C551.711 436.629 578.355 436.629 594.788 427.141V449.452C578.355 458.94 551.71 458.94 535.276 449.452L535.277 427.141Z" fill="#E1657B"/>
<path d="M607.592 410.3C607.39 410.158 607.109 410.302 607.099 410.549C606.835 416.98 602.242 422.792 594.939 427.052C594.845 427.107 594.786 427.208 594.786 427.317V448.924C594.786 449.158 595.035 449.307 595.237 449.187C602.912 444.621 615.653 433.719 615.653 427.141V423.571C615.653 418.815 613.341 414.355 609.454 411.613L607.592 410.3Z" fill="#E1657B"/>
<path d="M551.388 393.189C561.248 391.679 562.122 399.357 561.326 403.385C551.925 428.453 531.576 442.324 522.576 446.126C508.741 452.513 484.895 459.379 502.847 442.909C510.206 436.157 535.052 394.342 551.388 393.189Z" fill="#E3C079"/>
<path d="M559.905 456.167C561.406 450.912 559.623 439.354 558.544 434.232C574.751 435.305 586.751 431.348 590.725 429.236C595.624 432.87 597.441 442.864 597.737 447.407C584.464 456.73 566.985 457.132 559.905 456.167Z" fill="#FFECEC"/>
<path d="M615.388 428.097C613.571 425.22 605.716 422.273 602.016 421.158C607.92 415.053 606.914 410.078 605.674 408.354C615.514 414.005 616.25 423.871 615.388 428.097Z" fill="#FFECEC"/>
<path d="M212.696 187.933L160.984 158.075V167.706C160.984 169.525 162.25 171.739 163.826 172.674L206.697 198.122C206.841 198.207 206.982 198.302 207.123 198.415C210.822 201.368 217.779 209.781 217.599 221.261C217.418 232.859 217.521 306.635 217.597 443.109C217.599 445.045 219.024 447.432 220.696 448.253L230.567 453.096V218.885C230.567 207.489 222.566 193.631 212.696 187.933Z" fill="url(#paint12_linear_3305_786)" fill-opacity="0.75"/>
<path d="M230.567 220.959L268.631 198.983V446.408L230.567 468.385V220.959Z" fill="url(#paint13_linear_3305_786)" fill-opacity="0.75"/>
<path d="M205.454 139.799L248.964 164.92L210.9 186.896L167.39 161.775L205.454 139.799Z" fill="url(#paint14_linear_3305_786)" fill-opacity="0.75"/>
<path d="M230.567 220.959C230.567 208.418 221.762 193.167 210.9 186.896L248.964 164.92C259.826 171.191 268.631 186.441 268.631 198.983L230.567 220.959Z" fill="#20A1B0" fill-opacity="0.75"/>
<path d="M205.35 59.4087C205.35 47.2716 196.829 42.352 186.318 48.4206C175.807 54.4892 167.286 69.2479 167.286 81.385V161.965L205.35 139.988V59.4087Z" fill="url(#paint15_linear_3305_786)"/>
<path d="M167.286 81.385L160.942 77.7223V158.476L167.286 162.138V81.385Z" fill="#55C2CD" fill-opacity="0.5"/>
<path d="M199.776 47.0875C196.059 44.9419 191.189 45.6085 186.318 48.4206L179.974 44.7579C184.845 41.9457 189.715 41.2792 193.431 43.4247L199.776 47.0875Z" fill="#7BE0EC" fill-opacity="0.5"/>
<path d="M167.286 81.385C167.286 69.2479 175.807 54.4892 186.318 48.4206L179.974 44.7579C169.463 50.8264 160.942 65.5851 160.942 77.7223L167.286 81.385Z" fill="#55C2CD" fill-opacity="0.5"/>
<path d="M175.632 116.268C175.632 118.29 177.052 119.11 178.804 118.099C180.555 117.087 181.976 114.628 181.976 112.605C181.976 110.582 180.555 109.762 178.804 110.773C177.052 111.785 175.632 114.245 175.632 116.268Z" fill="#666666"/>
<path d="M181.046 110.551C180.427 110.194 179.615 110.305 178.804 110.773L175.632 108.942C176.443 108.473 177.255 108.362 177.874 108.72L181.046 110.551Z" fill="#8C8C8C"/>
<path d="M175.632 116.268C175.632 114.245 177.052 111.785 178.804 110.773L175.632 108.942C173.88 109.954 172.46 112.413 172.46 114.436L175.632 116.268Z" fill="#8C8C8C"/>
<path d="M176.561 118.321C175.941 117.964 175.632 117.205 175.632 116.268L172.46 114.436C172.46 115.374 172.769 116.132 173.389 116.49L176.561 118.321Z" fill="#404040"/>
<path d="M130.837 543.005L152.992 530.213L175.147 338.344L152.992 351.135L130.837 543.005Z" fill="#BDCBFD"/>
<path d="M175.148 568.587L197.303 555.796L175.147 338.344L152.992 351.135L175.148 568.587Z" fill="#4D8E43"/>
<path d="M130.837 543.005L175.148 568.587L152.992 351.135L130.837 543.005Z" fill="#75B346"/>
<path d="M237.784 568.587H175.148L197.194 556.012L237.784 568.587Z" fill="#B5B5B5" fill-opacity="0.5"/>
<path d="M218.441 594.093L240.596 581.302L262.751 389.432L240.596 402.223L218.441 594.093Z" fill="#BDCBFD"/>
<path d="M262.75 619.676L284.905 606.885L262.75 389.432L240.596 402.223L262.75 619.676Z" fill="#4D8E43"/>
<path d="M218.441 594.093L262.751 619.676L240.596 402.223L218.441 594.093Z" fill="#75B346"/>
<path d="M325.47 619.411H262.834L284.881 606.836L325.47 619.411Z" fill="#B5B5B5" fill-opacity="0.5"/>
<defs>
<linearGradient id="paint0_linear_3305_786" x1="328.746" y1="0" x2="328.746" y2="2360.68" gradientUnits="userSpaceOnUse">
<stop stop-color="#F5D0C7"/>
<stop offset="1" stop-color="#ED9F8C"/>
</linearGradient>
<linearGradient id="paint1_linear_3305_786" x1="563.498" y1="-415.001" x2="563.498" y2="2739.08" gradientUnits="userSpaceOnUse">
<stop stop-color="#ED9F8C"/>
<stop offset="1" stop-color="#DD7C64"/>
</linearGradient>
<linearGradient id="paint2_linear_3305_786" x1="-353.51" y1="-182.031" x2="-353.51" y2="806.16" gradientUnits="userSpaceOnUse">
<stop stop-color="#ED9F8C"/>
<stop offset="1" stop-color="#ED9F8C" stop-opacity="0"/>
</linearGradient>
<linearGradient id="paint3_linear_3305_786" x1="599.59" y1="-608.677" x2="599.59" y2="2860.07" gradientUnits="userSpaceOnUse">
<stop stop-color="#F5D0C7"/>
<stop offset="1" stop-color="#ED9F8C"/>
</linearGradient>
<linearGradient id="paint4_linear_3305_786" x1="699.502" y1="-674.656" x2="699.502" y2="2597.58" gradientUnits="userSpaceOnUse">
<stop stop-color="#ED9F8C"/>
<stop offset="1" stop-color="#DD7C64"/>
</linearGradient>
<linearGradient id="paint5_linear_3305_786" x1="-699.241" y1="-439.816" x2="-699.241" y2="782.981" gradientUnits="userSpaceOnUse">
<stop stop-color="#ED9F8C"/>
<stop offset="1" stop-color="#ED9F8C" stop-opacity="0"/>
</linearGradient>
<linearGradient id="paint6_linear_3305_786" x1="716.154" y1="-867.24" x2="716.154" y2="2601.49" gradientUnits="userSpaceOnUse">
<stop stop-color="#F5D0C7"/>
<stop offset="1" stop-color="#ED9F8C"/>
</linearGradient>
<linearGradient id="paint7_linear_3305_786" x1="835.492" y1="-290.934" x2="835.492" y2="745.46" gradientUnits="userSpaceOnUse">
<stop stop-color="#ED9F8C"/>
<stop offset="1" stop-color="#ED9F8C" stop-opacity="0"/>
</linearGradient>
<linearGradient id="paint8_linear_3305_786" x1="116.645" y1="-572.125" x2="116.645" y2="745.46" gradientUnits="userSpaceOnUse">
<stop stop-color="#ED9F8C"/>
<stop offset="1" stop-color="#ED9F8C" stop-opacity="0"/>
</linearGradient>
<radialGradient id="paint9_radial_3305_786" cx="0" cy="0" r="1" gradientUnits="userSpaceOnUse" gradientTransform="translate(311.524 359.937) rotate(77.0036) scale(596.066 1238.4)">
<stop stop-color="#41C8D4"/>
<stop offset="1" stop-color="#2BB1BD" stop-opacity="0.5"/>
</radialGradient>
<linearGradient id="paint10_linear_3305_786" x1="405.063" y1="19.7464" x2="459.603" y2="741.018" gradientUnits="userSpaceOnUse">
<stop stop-color="#1D7882"/>
<stop offset="1" stop-color="#083C42"/>
</linearGradient>
<linearGradient id="paint11_linear_3305_786" x1="401.359" y1="6.47695" x2="521.886" y2="720.929" gradientUnits="userSpaceOnUse">
<stop stop-color="#1D7882"/>
<stop offset="1" stop-color="#083C42"/>
</linearGradient>
<linearGradient id="paint12_linear_3305_786" x1="787.77" y1="-292.901" x2="787.77" y2="1211.83" gradientUnits="userSpaceOnUse">
<stop stop-color="#137A84"/>
<stop offset="0.820043" stop-color="#1B97A3" stop-opacity="0.414957"/>
<stop offset="1" stop-color="#1B97A3" stop-opacity="0"/>
</linearGradient>
<linearGradient id="paint13_linear_3305_786" x1="-51.6376" y1="-433.951" x2="-51.6376" y2="1164.1" gradientUnits="userSpaceOnUse">
<stop stop-color="#20A1B0"/>
<stop offset="0.497316" stop-color="#137C88"/>
<stop offset="1" stop-color="#137C88" stop-opacity="0"/>
</linearGradient>
<linearGradient id="paint14_linear_3305_786" x1="-585.46" y1="3089.76" x2="2372.23" y2="2452.02" gradientUnits="userSpaceOnUse">
<stop stop-color="#1EA1AD"/>
<stop offset="1" stop-color="#45D7E5"/>
</linearGradient>
<linearGradient id="paint15_linear_3305_786" x1="1304.91" y1="-23.5175" x2="1304.91" y2="3683.24" gradientUnits="userSpaceOnUse">
<stop stop-color="#FFF5ED"/>
<stop offset="1" stop-color="#E6B9A0"/>
</linearGradient>
</defs>
</svg>
