<svg width="582" height="570" viewBox="0 0 582 570" fill="none" xmlns="http://www.w3.org/2000/svg">
<path d="M196.07 250L282.047 299.639L220.635 335.095L134.658 285.456L196.07 250Z" fill="url(#paint0_linear_3301_678)"/>
<path d="M134.658 285.456L220.635 335.095L220.635 349.146L134.658 299.507L134.658 285.456Z" fill="url(#paint1_linear_3301_678)"/>
<path d="M220.635 335.095L282.047 299.639L282.048 467.466L220.636 502.922L220.635 335.095Z" fill="url(#paint2_linear_3301_678)"/>
<path d="M134.659 297.286L220.636 346.925L206.307 355.198L120.33 305.559L134.659 297.286Z" fill="url(#paint3_linear_3301_678)"/>
<path d="M120.33 305.559L206.307 355.198L206.306 366.949L120.329 317.31L120.33 305.559Z" fill="url(#paint4_linear_3301_678)"/>
<path d="M206.307 355.198L220.636 346.925L220.636 502.933L206.307 511.206L206.307 355.198Z" fill="url(#paint5_linear_3301_678)"/>
<path d="M120.329 317.373L206.307 367.012L191.977 375.285L106 325.646L120.329 317.373Z" fill="url(#paint6_linear_3301_678)"/>
<path d="M106 325.646L191.977 375.285L191.977 519.474L105.999 469.835L106 325.646Z" fill="url(#paint7_linear_3301_678)"/>
<path d="M191.977 375.285L206.307 367.012L206.306 511.201L191.977 519.474L191.977 375.285Z" fill="url(#paint8_linear_3301_678)"/>
<path d="M502.435 95.5802L303.188 210.615L445.507 292.784L644.754 177.748L502.435 95.5802Z" fill="url(#paint9_linear_3301_678)"/>
<path d="M644.755 177.749L445.508 292.784V325.346L644.755 210.311V177.749Z" fill="url(#paint10_linear_3301_678)"/>
<path d="M445.508 292.784L303.189 210.616V599.545L445.508 681.713L445.508 292.784Z" fill="url(#paint11_linear_3301_678)"/>
<path d="M644.754 205.164L445.508 320.199L478.715 339.371L677.962 224.336L644.754 205.164Z" fill="url(#paint12_linear_3301_678)"/>
<path d="M677.962 224.336L478.715 339.371L478.716 366.604L677.963 251.569L677.962 224.336Z" fill="url(#paint13_linear_3301_678)"/>
<path d="M478.717 339.371L445.509 320.198V681.738L478.717 700.91V339.371Z" fill="url(#paint14_linear_3301_678)"/>
<path d="M677.962 251.714L478.715 366.749L511.923 385.922L711.17 270.887L677.962 251.714Z" fill="url(#paint15_linear_3301_678)"/>
<path d="M711.171 270.887L511.924 385.922V720.072L711.171 605.037V270.887Z" fill="url(#paint16_linear_3301_678)"/>
<path d="M511.924 385.922L478.716 366.749V700.899L511.924 720.072V385.922Z" fill="url(#paint17_linear_3301_678)"/>
<path d="M533.024 165.027L515.211 154.743L497.399 0.481689L515.211 10.7658L533.024 165.027Z" fill="#BDCBFD"/>
<path d="M497.398 185.596L479.585 175.312L497.399 0.481689L515.211 10.7658L497.398 185.596Z" fill="#75B346"/>
<path d="M533.024 164.546L497.399 185.114L515.211 10.2841L533.024 164.546Z" fill="#4D8E43"/>
<path d="M496.866 185.061L533.019 164.603H578.837L542.65 185.061H496.866Z" fill="#54A7AE" fill-opacity="0.5"/>
<path d="M421.337 229.198L457.49 208.741H503.307L467.121 229.198H421.337Z" fill="#54A7AE" fill-opacity="0.5"/>
<path d="M457.327 208.74L439.514 198.456L421.702 44.1946L439.514 54.4787L457.327 208.74Z" fill="#BDCBFD"/>
<path d="M421.701 229.309L403.888 219.025L421.702 44.1946L439.514 54.4787L421.701 229.309Z" fill="#75B346"/>
<path d="M457.327 208.74L421.701 229.309L439.514 54.4787L457.327 208.74Z" fill="#4D8E43"/>
<path d="M344.259 284.691L316.932 268.914V332.023L344.259 347.8V284.691Z" fill="#D9D9D9"/>
<path d="M326.041 263.655L316.932 268.914V332.023L326.041 326.764V263.655Z" fill="#51BDC7" fill-opacity="0.75"/>
<path d="M353.368 342.541L326.041 326.764L316.932 332.023L344.259 347.8L353.368 342.541Z" fill="#A2E4E9" fill-opacity="0.75"/>
<path d="M353.368 279.432L326.041 263.655V326.764L353.368 342.541V279.432Z" fill="#2B8F99" fill-opacity="0.75"/>
<path d="M386.105 307.939L358.777 292.162V355.271L386.105 371.048V307.939Z" fill="#D9D9D9"/>
<path d="M367.886 286.903L358.777 292.162V355.271L367.886 350.012V286.903Z" fill="#51BDC7" fill-opacity="0.75"/>
<path d="M395.213 365.789L367.886 350.012L358.777 355.271L386.105 371.048L395.213 365.789Z" fill="#A2E4E9" fill-opacity="0.75"/>
<path d="M395.213 302.68L367.886 286.903V350.012L395.213 365.789V302.68Z" fill="#2B8F99" fill-opacity="0.75"/>
<path d="M427.952 331.188L400.625 315.41V378.52L427.952 394.297V331.188Z" fill="#D9D9D9"/>
<path d="M409.734 310.151L400.625 315.41V378.52L409.734 373.261V310.151Z" fill="#51BDC7" fill-opacity="0.75"/>
<path d="M437.061 389.038L409.734 373.261L400.625 378.52L427.952 394.297L437.061 389.038Z" fill="#A2E4E9" fill-opacity="0.75"/>
<path d="M437.061 325.929L409.734 310.151V373.261L437.061 389.038V325.929Z" fill="#2B8F99" fill-opacity="0.75"/>
<path d="M357.924 410.075L330.597 394.297V457.406L357.924 473.184V410.075Z" fill="#D9D9D9"/>
<path d="M339.707 389.038L330.597 394.297V457.406L339.707 452.148V389.038Z" fill="#51BDC7" fill-opacity="0.5"/>
<path d="M367.033 467.925L339.706 452.148L330.597 457.406L357.924 473.184L367.033 467.925Z" fill="#A2E4E9" fill-opacity="0.5"/>
<path d="M367.033 404.816L339.706 389.038V452.148L367.033 467.925V404.816Z" fill="#2B8F99" fill-opacity="0.5"/>
<path d="M399.771 433.323L372.444 417.545V480.655L399.771 496.432V433.323Z" fill="#D9D9D9"/>
<path d="M381.553 412.287L372.444 417.545V480.655L381.553 475.396V412.287Z" fill="#51BDC7" fill-opacity="0.5"/>
<path d="M408.88 491.173L381.553 475.396L372.444 480.655L399.771 496.432L408.88 491.173Z" fill="#A2E4E9" fill-opacity="0.5"/>
<path d="M408.88 428.064L381.553 412.287V475.396L408.88 491.173V428.064Z" fill="#2B8F99" fill-opacity="0.5"/>
<path d="M441.617 456.572L414.29 440.794V503.904L441.617 519.681V456.572Z" fill="#D9D9D9"/>
<path d="M423.399 435.536L414.29 440.794V503.904L423.399 498.645V435.536Z" fill="#51BDC7" fill-opacity="0.5"/>
<path d="M450.726 514.422L423.399 498.645L414.29 503.904L441.617 519.681L450.726 514.422Z" fill="#A2E4E9" fill-opacity="0.5"/>
<path d="M450.726 451.313L423.399 435.536V498.645L450.726 514.422V451.313Z" fill="#2B8F99" fill-opacity="0.5"/>
<path d="M206.113 443.431L327.353 513.429L230.361 569.427L109.121 499.43L206.113 443.431Z" fill="#F2F1F0"/>
<path d="M109.122 499.429L230.362 569.427V592.76L109.122 522.762V499.429Z" fill="#D9D9D9"/>
<path d="M230.362 569.427L327.354 513.429V536.761L230.362 592.76V569.427Z" fill="#B3B3B3"/>
<path d="M96.9982 505.713L218.238 575.711L121.246 631.71L0.00622761 561.712L96.9982 505.713Z" fill="#F2F1F0"/>
<path d="M0 561.713L121.24 631.711V655.044L0 585.046V561.713Z" fill="#D9D9D9"/>
<path d="M121.248 631.709L218.24 575.711V599.043L121.248 655.042V631.709Z" fill="#B3B3B3"/>
<path d="M339.014 520.19L460.254 590.188L363.262 646.186L242.022 576.188L339.014 520.19Z" fill="#F2F1F0"/>
<path d="M242.016 576.19L363.256 646.188V669.521L242.016 599.523V576.19Z" fill="#D9D9D9"/>
<path d="M363.264 646.186L460.256 590.188V613.52L363.264 669.518V646.186Z" fill="#B3B3B3"/>
<path d="M164.908 519.005C177.469 523.816 174.452 524.897 199.704 525.791C248.943 527.533 236.027 518.064 240.173 511.44C244.198 505.006 239.523 490.295 236.838 485.642C231.387 476.199 199.701 475.328 181.517 485.824C163.333 496.32 154.89 515.168 164.908 519.005Z" fill="#BCBCBC" fill-opacity="0.5"/>
<path d="M213.65 507.453C213.65 494.115 209.768 481.971 209.768 471.597L219.767 469.667C222.366 469.165 224.812 468.067 226.913 466.457L235.221 460.094C237.506 467.151 240.523 475.187 247.18 483.317C255.502 493.479 266.026 497.714 266.026 511.264C266.026 522.104 238.859 527.002 227.356 528.625C221.482 529.049 213.65 520.148 213.65 507.453Z" fill="#F0E698"/>
<path d="M186.375 494.355C190.567 497.025 199.17 490.327 202.948 486.644L184.445 470.728C183.342 477.491 182.183 491.685 186.375 494.355Z" fill="#E3C079"/>
<path d="M214.129 393.306C205.887 397.989 207.632 400.446 208.242 406.806C208.992 414.624 215.668 414.203 218.913 413.016C237.075 405.714 242.101 392.911 242.344 387.422C248.758 371.809 219.222 366.64 203.653 366.007C197.16 365.575 185.133 366.111 188.965 371.704C192.797 377.297 208.624 383.269 216.059 385.556C219.269 386.479 222.372 388.624 214.129 393.306Z" fill="#E3C079"/>
<path d="M177.011 466.354C158.606 424.882 184.942 403.696 200.411 398.288C217.156 389.509 249.523 382.865 245.027 426.525C239.407 481.1 200.016 518.194 177.011 466.354Z" fill="#F1CE89"/>
<path d="M159.635 357.28C159.635 356.943 159.871 356.534 160.163 356.365L178.553 345.747C179.136 345.41 179.609 345.683 179.609 346.356L179.608 380.314C179.608 380.988 179.135 381.806 178.552 382.143L160.689 392.457C160.106 392.794 159.633 392.521 159.633 391.847L159.635 357.28Z" fill="#27292E"/>
<path d="M160.802 358.733C160.802 358.396 161.039 357.987 161.33 357.819L177.386 348.548C177.969 348.211 178.442 348.484 178.442 349.158L178.441 378.861C178.441 379.535 177.968 380.353 177.385 380.69L161.857 389.656C161.274 389.993 160.801 389.72 160.801 389.046L160.802 358.733Z" fill="#0C6974"/>
<path d="M173.936 366.61C173.935 370.666 172.004 375.068 169.621 376.444C167.239 377.82 165.307 375.647 165.308 371.592C165.308 367.536 167.239 363.134 169.622 361.758C172.004 360.382 173.936 362.555 173.936 366.61Z" fill="#F0E698"/>
<path d="M187.377 376.498C188.02 371.992 184.078 370.572 182.027 370.426C175.105 370.872 169.335 377.756 167.315 381.143C167.924 380.99 170.149 381.172 174.179 383.117C178.208 385.062 181.058 385.309 181.978 385.189C183.51 384.17 186.733 381.004 187.377 376.498Z" fill="#D59B24"/>
<path d="M178.994 378.771C179.979 362.486 195.871 357.547 203.694 357.114C206.57 356.757 210.789 357.456 212.539 357.85C220.917 360.516 223.705 364.102 228.869 378.044C233.171 389.663 237.121 396.226 239.292 399.011C239.658 399.389 240.018 399.798 240.369 400.239C240.089 399.974 239.726 399.568 239.292 399.011C236.427 396.052 233.225 394.944 231.85 394.762C233.935 400.552 233.766 404.733 233.421 406.1C230.824 401.893 227.695 400.273 226.454 399.988C221.21 403.787 221.564 410.983 222.397 414.106C219.551 407.752 213.619 405.431 211.009 405.066C208.871 406.961 208.239 414.749 208.113 418.432C208.172 418.877 208.196 419.296 208.178 419.68C208.113 421.068 208.051 420.25 208.113 418.432C207.658 414.992 205.116 410.024 203.752 407.738L200.823 417.927C197.904 410.224 190.075 407.412 186.526 406.969C188.091 404.131 185.44 400.447 183.919 398.96C178.295 392.814 178.292 382.94 178.994 378.771Z" fill="#F0E698"/>
<path d="M188.661 376.348C188.167 378.068 187.173 378.537 186.442 377.396C185.71 376.255 185.518 373.936 186.012 372.216C186.507 370.496 187.5 370.027 188.232 371.168C188.963 372.309 189.155 374.629 188.661 376.348Z" fill="#4A5051"/>
<path d="M180.56 414.078C190.967 409.75 192.392 413.014 198.678 417.9C206.405 423.907 201.523 429.709 198.116 431.859C178.357 443.45 161.544 439.316 155.608 435.801C134.916 431.02 142.479 395.492 152.166 380.863C156.029 374.649 164.59 364.046 167.927 371.348C171.263 378.65 170.464 400.184 167.926 408.521C166.764 412.077 170.152 418.407 180.56 414.078Z" fill="#E3C079"/>
<defs>
<linearGradient id="paint0_linear_3301_678" x1="355.585" y1="0.481689" x2="355.585" y2="720.072" gradientUnits="userSpaceOnUse">
<stop stop-color="#F5D0C7"/>
<stop offset="1" stop-color="#ED9F8C"/>
</linearGradient>
<linearGradient id="paint1_linear_3301_678" x1="355.585" y1="0.481689" x2="355.585" y2="720.072" gradientUnits="userSpaceOnUse">
<stop stop-color="#ED9F8C"/>
<stop offset="1" stop-color="#DD7C64"/>
</linearGradient>
<linearGradient id="paint2_linear_3301_678" x1="355.585" y1="0.481689" x2="355.585" y2="720.072" gradientUnits="userSpaceOnUse">
<stop stop-color="#ED9F8C"/>
<stop offset="1" stop-color="#ED9F8C" stop-opacity="0"/>
</linearGradient>
<linearGradient id="paint3_linear_3301_678" x1="355.585" y1="0.481689" x2="355.585" y2="720.072" gradientUnits="userSpaceOnUse">
<stop stop-color="#F5D0C7"/>
<stop offset="1" stop-color="#ED9F8C"/>
</linearGradient>
<linearGradient id="paint4_linear_3301_678" x1="355.585" y1="0.481689" x2="355.585" y2="720.072" gradientUnits="userSpaceOnUse">
<stop stop-color="#ED9F8C"/>
<stop offset="1" stop-color="#DD7C64"/>
</linearGradient>
<linearGradient id="paint5_linear_3301_678" x1="355.585" y1="0.481689" x2="355.585" y2="720.072" gradientUnits="userSpaceOnUse">
<stop stop-color="#ED9F8C"/>
<stop offset="1" stop-color="#ED9F8C" stop-opacity="0"/>
</linearGradient>
<linearGradient id="paint6_linear_3301_678" x1="355.585" y1="0.481689" x2="355.585" y2="720.072" gradientUnits="userSpaceOnUse">
<stop stop-color="#F5D0C7"/>
<stop offset="1" stop-color="#ED9F8C"/>
</linearGradient>
<linearGradient id="paint7_linear_3301_678" x1="355.585" y1="0.481689" x2="355.585" y2="720.072" gradientUnits="userSpaceOnUse">
<stop stop-color="#ED9F8C"/>
<stop offset="1" stop-color="#ED9F8C" stop-opacity="0"/>
</linearGradient>
<linearGradient id="paint8_linear_3301_678" x1="355.585" y1="0.481689" x2="355.585" y2="720.072" gradientUnits="userSpaceOnUse">
<stop stop-color="#ED9F8C"/>
<stop offset="1" stop-color="#ED9F8C" stop-opacity="0"/>
</linearGradient>
<linearGradient id="paint9_linear_3301_678" x1="355.585" y1="0.481689" x2="355.585" y2="720.072" gradientUnits="userSpaceOnUse">
<stop stop-color="#A8D7DC"/>
<stop offset="1" stop-color="#5BBDC7"/>
</linearGradient>
<linearGradient id="paint10_linear_3301_678" x1="355.585" y1="0.481689" x2="355.585" y2="720.072" gradientUnits="userSpaceOnUse">
<stop stop-color="#7DCED6"/>
<stop offset="1" stop-color="#0FA3B1"/>
</linearGradient>
<linearGradient id="paint11_linear_3301_678" x1="355.585" y1="0.481689" x2="355.585" y2="720.072" gradientUnits="userSpaceOnUse">
<stop stop-color="#7DCED6"/>
<stop offset="1" stop-color="#7DCED6" stop-opacity="0"/>
</linearGradient>
<linearGradient id="paint12_linear_3301_678" x1="355.585" y1="0.481689" x2="355.585" y2="720.072" gradientUnits="userSpaceOnUse">
<stop stop-color="#A8D7DC"/>
<stop offset="1" stop-color="#5BBDC7"/>
</linearGradient>
<linearGradient id="paint13_linear_3301_678" x1="355.585" y1="0.481689" x2="355.585" y2="720.072" gradientUnits="userSpaceOnUse">
<stop stop-color="#7DCED6"/>
<stop offset="1" stop-color="#0FA3B1"/>
</linearGradient>
<linearGradient id="paint14_linear_3301_678" x1="355.585" y1="0.481689" x2="355.585" y2="720.072" gradientUnits="userSpaceOnUse">
<stop stop-color="#7DCED6"/>
<stop offset="1" stop-color="#7DCED6" stop-opacity="0"/>
</linearGradient>
<linearGradient id="paint15_linear_3301_678" x1="355.585" y1="0.481689" x2="355.585" y2="720.072" gradientUnits="userSpaceOnUse">
<stop stop-color="#A8D7DC"/>
<stop offset="1" stop-color="#5BBDC7"/>
</linearGradient>
<linearGradient id="paint16_linear_3301_678" x1="355.585" y1="0.481689" x2="355.585" y2="720.072" gradientUnits="userSpaceOnUse">
<stop stop-color="#7DCED6"/>
<stop offset="1" stop-color="#7DCED6" stop-opacity="0"/>
</linearGradient>
<linearGradient id="paint17_linear_3301_678" x1="355.585" y1="0.481689" x2="355.585" y2="720.072" gradientUnits="userSpaceOnUse">
<stop stop-color="#7DCED6"/>
<stop offset="1" stop-color="#7DCED6" stop-opacity="0"/>
</linearGradient>
</defs>
</svg>
