<svg width="434" height="334" viewBox="0 0 434 334" fill="none" xmlns="http://www.w3.org/2000/svg">
<path d="M350.612 49.4127C350.612 88.2843 323.322 135.552 289.658 154.988C255.994 174.423 228.704 158.667 228.704 119.796C228.704 80.9243 255.994 33.6569 289.658 14.2211C323.322 -5.2147 350.612 10.5411 350.612 49.4127Z" fill="#FFF1DB"/>
<path d="M228.704 119.796C228.704 137.809 234.656 152.385 246.558 159.257L216.081 141.661C204.179 134.79 198.228 120.213 198.228 102.2L228.704 119.796Z" fill="#E7AD8C"/>
<path d="M228.705 119.799C228.705 80.927 255.995 33.6596 289.659 14.2238L259.182 -3.37202C225.518 16.0638 198.228 63.3312 198.228 102.203L228.705 119.799Z" fill="#E7AD8C"/>
<path d="M332.76 9.95245C320.858 3.08086 305.259 5.21559 289.66 14.2219L259.183 -3.3739C274.782 -12.3802 290.382 -14.5149 302.283 -7.64336L332.76 9.95245Z" fill="#E7AD8C"/>
<path d="M295.097 41.8549C295.097 103.631 251.727 178.749 198.228 209.637C144.728 240.525 101.359 215.485 101.359 153.71C101.359 91.934 144.728 16.8154 198.228 -14.0724C251.727 -44.9603 295.097 -19.9207 295.097 41.8549Z" fill="#FFF1DB"/>
<path d="M101.358 153.711C101.358 182.337 110.816 205.503 129.731 216.423L81.2962 188.46C62.3813 177.539 52.9239 154.373 52.9239 125.747L101.358 153.711Z" fill="#E7AD8C"/>
<path d="M101.359 153.71C101.359 91.934 144.728 16.8154 198.228 -14.0724L149.793 -42.0371C96.2937 -11.1493 52.9239 63.9693 52.9239 125.745L101.359 153.71Z" fill="#E7AD8C"/>
<path d="M266.724 -20.8571C247.81 -31.7776 223.019 -28.3855 198.228 -14.0724L149.793 -42.0356C174.584 -56.3487 199.375 -59.7413 218.29 -48.8208L266.724 -20.8571Z" fill="#E7AD8C"/>
<path d="M152.684 97.3007C152.684 136.172 125.394 183.44 91.7306 202.876C58.0669 222.311 30.777 206.556 30.777 167.684C30.777 128.812 58.0669 81.5449 91.7306 62.1091C125.394 42.6733 152.684 58.4292 152.684 97.3007Z" fill="#FFF1DB"/>
<path d="M30.777 167.684C30.777 185.697 36.7286 200.273 48.6305 207.144L18.1537 189.549C6.25175 182.677 0.300781 168.1 0.300781 150.087L30.777 167.684Z" fill="#E7AD8C"/>
<path d="M30.777 167.684C30.777 128.812 58.0669 81.5449 91.7306 62.1091L61.2544 44.5132C27.5907 63.949 0.300781 111.216 0.300781 150.087L30.777 167.684Z" fill="#E7AD8C"/>
<path d="M134.833 57.8396C122.931 50.968 107.332 53.1027 91.7321 62.109L61.2544 44.5132C76.8538 35.5069 92.4541 33.3722 104.356 40.2438L134.833 57.8396Z" fill="#E7AD8C"/>
<path d="M341.122 241.899C341.122 262.499 355.584 287.549 373.425 297.849C391.265 308.149 405.727 299.799 405.727 279.199C405.727 258.599 391.265 233.549 373.425 223.249C355.584 212.949 341.122 221.299 341.122 241.899Z" fill="#FFF1DB"/>
<path d="M405.727 279.199C405.727 288.745 402.573 296.47 396.265 300.111L412.417 290.786C418.724 287.145 421.878 279.42 421.878 269.874L405.727 279.199Z" fill="#E7AD8C"/>
<path d="M405.726 279.2C405.726 258.6 391.264 233.55 373.424 223.25L389.575 213.925C407.415 224.225 421.878 249.275 421.878 269.875L405.726 279.2Z" fill="#E7AD8C"/>
<path d="M350.583 220.987C356.89 217.346 365.158 218.476 373.425 223.249L389.575 213.925C381.308 209.152 373.042 208.021 366.734 211.662L350.583 220.987Z" fill="#E7AD8C"/>
<path d="M370.545 237.893C370.545 270.631 393.529 310.441 421.881 326.81C450.233 343.179 473.217 329.909 473.217 297.171C473.217 264.433 450.233 224.623 421.881 208.254C393.529 191.885 370.545 205.155 370.545 237.893Z" fill="#FFF1DB"/>
<path d="M473.216 297.171C473.216 312.342 468.204 324.619 458.18 330.406L483.848 315.587C493.872 309.799 498.884 297.523 498.884 282.352L473.216 297.171Z" fill="#E7AD8C"/>
<path d="M473.216 297.171C473.216 264.433 450.233 224.623 421.881 208.254L447.548 193.434C475.9 209.804 498.884 249.614 498.884 282.352L473.216 297.171Z" fill="#E7AD8C"/>
<path d="M385.579 204.659C395.603 198.871 408.741 200.669 421.879 208.254L447.548 193.434C434.41 185.849 421.271 184.052 411.247 189.839L385.579 204.659Z" fill="#E7AD8C"/>
<path d="M446.015 267.277C446.015 287.877 460.478 312.926 478.318 323.226C496.158 333.526 510.621 325.176 510.621 304.576C510.621 283.976 496.158 258.927 478.318 248.627C460.478 238.327 446.015 246.676 446.015 267.277Z" fill="#FFF1DB"/>
<path d="M510.621 304.576C510.621 314.122 507.466 321.847 501.159 325.488L517.31 316.163C523.617 312.522 526.771 304.797 526.771 295.251L510.621 304.576Z" fill="#E7AD8C"/>
<path d="M510.621 304.576C510.621 283.976 496.158 258.927 478.318 248.627L494.469 239.302C512.309 249.602 526.771 274.651 526.771 295.251L510.621 304.576Z" fill="#E7AD8C"/>
<path d="M455.476 246.364C461.784 242.723 470.051 243.854 478.318 248.627L494.469 239.302C486.202 234.529 477.935 233.398 471.628 237.039L455.476 246.364Z" fill="#E7AD8C"/>
</svg>
