<svg width="306" height="281" viewBox="0 0 306 281" fill="none" xmlns="http://www.w3.org/2000/svg">
<mask id="mask0_1363_1660" style="mask-type:alpha" maskUnits="userSpaceOnUse" x="113" y="206" width="77" height="45">
<rect width="43.5348" height="43.5348" transform="matrix(0.866025 0.5 -0.866025 0.5 151.668 206.54)" fill="#D9D9D9"/>
</mask>
<g mask="url(#mask0_1363_1660)">
<rect width="43.5348" height="30.4743" transform="matrix(0.866025 0.5 0 1 151.668 206.54)" fill="#614124"/>
<rect width="43.5348" height="30.4743" transform="matrix(0.866025 -0.5 0 1 113.966 228.307)" fill="#4B321B"/>
<rect width="43.5348" height="43.5348" transform="matrix(0.866025 0.5 -0.866025 0.5 151.668 237.014)" fill="#666666"/>
</g>
<path d="M150.045 225.471C152.61 228.682 155.414 226.589 156.496 225.14C163.293 220.097 146.915 203.421 144.205 197.345C142.036 192.483 140.482 197.144 139.976 200.082C138.86 210.536 146.224 221.364 150.045 225.471Z" fill="#E3C079"/>
<path d="M165.931 264.721C187.036 262.652 180.101 235.298 178.923 226.938C178.851 217.153 174.465 200.832 157.497 213.818C136.287 230.051 139.55 267.306 165.931 264.721Z" fill="#F1CE89"/>
<path d="M180.214 201.544C175.716 196.106 174.725 196.527 171.082 196.333C169.742 196.17 167.778 196.5 166.964 196.685C163.066 197.935 161.771 199.607 159.382 206.104C157.39 211.519 155.558 214.579 154.55 215.878C154.38 216.054 154.213 216.245 154.05 216.451C154.18 216.327 154.349 216.138 154.55 215.878C155.881 214.497 157.371 213.978 158.011 213.892C157.046 216.59 157.129 218.537 157.291 219.173C158.496 217.211 159.951 216.453 160.528 216.32C162.974 218.083 162.817 221.434 162.432 222.889C163.751 219.927 166.51 218.841 167.726 218.668C168.723 219.548 169.025 223.173 169.088 224.888C169.061 225.095 169.05 225.291 169.059 225.47C169.091 226.116 169.118 225.735 169.088 224.888C169.296 223.286 170.474 220.97 171.107 219.905L172.481 224.646C173.833 221.056 177.475 219.739 179.127 219.528C178.395 218.209 178.894 215.004 179.601 214.31C182.147 209.176 181.215 203.233 180.214 201.544Z" fill="#F0E698"/>
<ellipse cx="1.35269" cy="1.6868" rx="1.35269" ry="1.6868" transform="matrix(-0.904937 0.425546 -0.0536733 0.998559 166.911 206.017)" fill="#4A5051"/>
<ellipse cx="1.35269" cy="1.6868" rx="1.35269" ry="1.6868" transform="matrix(-0.904937 0.425546 -0.0536733 0.998559 176.553 207.683)" fill="#4A5051"/>
<path d="M168.985 208.658C170.808 207.577 172.122 209.019 172.551 209.875C173.939 213.308 171.195 216.484 168.474 218.094C168.431 217.805 168.024 216.855 167.032 215.023C166.067 213.24 166.324 212.949 166.211 212.531C166.376 211.691 167.162 209.739 168.985 208.658Z" fill="#D59B24"/>
<path d="M205.527 151.29L183.706 226.678L186.272 228.307L208.152 151.29H205.527Z" fill="#303030"/>
<path d="M94.6998 151.466L116.521 226.855L113.954 228.483L92.0742 151.466H94.6998Z" fill="#303030"/>
<path d="M153.413 174.157L153.347 252.639L150.428 253.488L150.892 173.424L153.413 174.157Z" fill="#303030"/>
<path d="M157.711 275.543H145.483L150.122 264.528L156.13 265.714L157.711 275.543Z" fill="#614124"/>
<path d="M113.966 228.307L151.668 250.075V267.488C151.668 274.701 146.604 277.625 140.357 274.019L132.817 269.665C122.406 263.654 113.966 249.036 113.966 237.014V228.307Z" fill="#704E2E"/>
<path d="M151.669 250.074L189.371 228.307V237.014C189.371 249.036 180.931 263.654 170.52 269.665L162.98 274.019C156.733 277.625 151.669 274.701 151.669 267.488V250.074Z" fill="#4B321B"/>
<path d="M176.064 230.517C173.141 226.158 173.747 228.297 172.863 224.697C171.775 220.272 174.758 220.068 176.623 220.267C187.187 221.739 187.543 228.481 188.696 231.479C194.872 239.201 181.85 249.993 174.087 252.538C170.882 253.692 164.693 255.093 165.583 251.462C166.473 247.832 172.984 240.197 176.318 237.885C177.77 236.922 178.727 234.49 176.064 230.517Z" fill="#E3C079"/>
<mask id="mask1_1363_1660" style="mask-type:alpha" maskUnits="userSpaceOnUse" x="0" y="-160" width="306" height="334">
<path d="M303.959 -59.1517C317.441 1.78616 244.293 103.798 205.879 153.321C204.983 154.477 204.227 155.682 203.573 156.99C201.423 161.29 197.966 164.864 193.486 166.611C158.732 180.158 116.098 170.581 98.1618 163.616C87.8026 131.158 50.9481 80.4465 32.2062 57.2738C8.9994 20.2807 -19.6636 -58.2497 18.9197 -106.435C64.4418 -163.287 120.631 -159.964 155.864 -159.964C191.096 -159.964 281.656 -159.964 303.959 -59.1517Z" fill="#E1657B"/>
</mask>
<g mask="url(#mask1_1363_1660)">
<path d="M303.959 -59.1517C317.361 1.42453 245.158 102.589 206.567 152.434C205.213 154.182 204.059 156.019 203.07 157.996C201.213 161.71 200.063 165.738 199.678 169.872L198.732 180.028L195.056 188.394L174.272 199.363C151.791 203.473 105.547 203.891 100.418 172.688C95.2893 141.485 52.8065 82.7441 32.2062 57.2738C8.9994 20.2807 -19.6636 -58.2497 18.9197 -106.435C64.4418 -163.287 120.631 -159.964 155.864 -159.964C191.096 -159.964 281.656 -159.964 303.959 -59.1517Z" fill="url(#paint0_linear_1363_1660)"/>
<path d="M219.467 -176.144C183.091 -168.159 161.428 -137.698 155.144 -123.465C219.467 -149.194 282.866 -131.968 306.525 -120.138L219.467 -176.144Z" fill="url(#paint1_linear_1363_1660)"/>
<path d="M295.99 10.1719C326.917 -109.547 202.04 -123.986 155.144 -120.138V-116.249C285.534 -57.3673 238.981 101.648 199.406 173.796C249.203 173.487 261.61 143.254 295.99 10.1719Z" fill="url(#paint2_linear_1363_1660)"/>
<path d="M74.9724 -178.786C126.932 -164.237 145.887 -135.843 148.87 -123.465C129.934 -139.482 58.9996 -155.088 25.8995 -160.889L74.9724 -178.786Z" fill="url(#paint3_linear_1363_1660)"/>
<path d="M14.8526 39.0065C-36.7169 -113.836 96.2262 -127.9 148.87 -120.138V-116.249C16.78 -95.0707 62.2365 85.9388 101.476 173.796L14.8526 39.0065Z" fill="url(#paint4_linear_1363_1660)"/>
<path d="M145.528 200.976C111.484 70.9074 131.702 -63.6318 148.87 -113.836C207.989 -39.1079 170.352 129.394 148.89 202.658C142.759 204.237 149.127 201.635 145.528 200.976Z" fill="url(#paint5_linear_1363_1660)"/>
</g>
<path d="M95.5899 154.086C96.1168 154.888 96.7763 155.599 97.5312 156.192C102.899 160.409 98.8759 157.674 108.78 163.391V173.613C98.2455 167.531 92.3906 158.495 92.3906 149.214L95.5899 154.086Z" fill="#666666"/>
<path d="M108.779 163.391C131.512 176.516 168.369 176.516 191.102 163.391V173.613C168.369 186.738 131.512 186.738 108.779 173.613V163.391Z" fill="#404040"/>
<path d="M203.754 154.856C203.728 154.885 203.704 154.913 203.677 154.941C203.358 155.28 200.884 157.728 191.324 163.263C191.19 163.341 191.103 163.487 191.103 163.643V173.613C201.198 167.784 207.602 159.825 208.118 151.003C208.142 150.602 207.655 150.414 207.39 150.716L203.754 154.856Z" fill="#404040"/>
<defs>
<linearGradient id="paint0_linear_1363_1660" x1="152.798" y1="-160" x2="152.798" y2="201.335" gradientUnits="userSpaceOnUse">
<stop stop-color="#CD455D"/>
<stop offset="1" stop-color="#942E40"/>
</linearGradient>
<linearGradient id="paint1_linear_1363_1660" x1="141.874" y1="-190.142" x2="154.854" y2="203.159" gradientUnits="userSpaceOnUse">
<stop stop-color="#F2F0F2"/>
<stop offset="1" stop-color="#D5CFCF"/>
</linearGradient>
<linearGradient id="paint2_linear_1363_1660" x1="141.874" y1="-190.142" x2="154.854" y2="203.159" gradientUnits="userSpaceOnUse">
<stop stop-color="#F2F0F2"/>
<stop offset="1" stop-color="#D5CFCF"/>
</linearGradient>
<linearGradient id="paint3_linear_1363_1660" x1="141.874" y1="-190.142" x2="154.854" y2="203.159" gradientUnits="userSpaceOnUse">
<stop stop-color="#F2F0F2"/>
<stop offset="1" stop-color="#D5CFCF"/>
</linearGradient>
<linearGradient id="paint4_linear_1363_1660" x1="141.874" y1="-190.142" x2="154.854" y2="203.159" gradientUnits="userSpaceOnUse">
<stop stop-color="#F2F0F2"/>
<stop offset="1" stop-color="#D5CFCF"/>
</linearGradient>
<linearGradient id="paint5_linear_1363_1660" x1="141.874" y1="-190.142" x2="154.854" y2="203.159" gradientUnits="userSpaceOnUse">
<stop stop-color="#F2F0F2"/>
<stop offset="1" stop-color="#D5CFCF"/>
</linearGradient>
</defs>
</svg>
