<svg width="217" height="208" viewBox="0 0 217 208" fill="none" xmlns="http://www.w3.org/2000/svg">
<circle cx="43.4502" cy="43.4502" r="43.4502" transform="matrix(0.866025 -0.5 0 1 141.25 74.4465)" fill="#F8F1E6"/>
<path d="M141.25 117.897C141.25 129.017 144.924 138.016 152.271 142.258L133.457 131.395C126.109 127.153 122.436 118.154 122.436 107.034L141.25 117.897Z" fill="#F2C4AA"/>
<path d="M141.25 117.898C141.25 93.9014 158.097 64.7214 178.879 52.7229L160.065 41.8604C139.283 53.8588 122.436 83.0388 122.436 107.036L141.25 117.898Z" fill="#F2C4AA"/>
<path d="M205.487 50.0861C198.14 45.844 188.51 47.1619 178.879 52.7218L160.065 41.8593C169.695 36.2993 179.325 34.9815 186.673 39.2236L205.487 50.0861Z" fill="#F2C4AA"/>
<circle cx="69.0522" cy="69.0522" r="69.0522" transform="matrix(0.866025 -0.5 0 1 62.6353 69.7808)" fill="#F8F1E6"/>
<path d="M62.6348 138.834C62.6348 156.506 68.4733 170.807 80.1501 177.548L50.2497 160.285C38.5728 153.544 32.7344 139.243 32.7344 121.571L62.6348 138.834Z" fill="#F2C4AA"/>
<path d="M62.6348 138.832C62.6348 100.696 89.4086 54.3223 122.436 35.2541L92.5353 17.991C59.5082 37.0593 32.7344 83.4328 32.7344 121.569L62.6348 138.832Z" fill="#F2C4AA"/>
<path d="M164.721 31.0663C153.044 24.3246 137.74 26.419 122.436 35.255L92.5352 17.9919C107.84 9.15595 123.144 7.06159 134.821 13.8032L164.721 31.0663Z" fill="#F2C4AA"/>
<circle cx="43.4502" cy="43.4502" r="43.4502" transform="matrix(0.866025 -0.5 0 1 19.062 104.01)" fill="#F8F1E6"/>
<path d="M19.0626 147.459C19.0626 158.579 22.7363 167.578 30.0838 171.82L11.2693 160.958C3.92181 156.715 0.248047 147.717 0.248047 136.597L19.0626 147.459Z" fill="#F2C4AA"/>
<path d="M19.0626 147.46C19.0626 123.463 35.9096 94.2828 56.6916 82.2843L37.8771 71.4217C17.0951 83.4202 0.248047 112.6 0.248047 136.597L19.0626 147.46Z" fill="#F2C4AA"/>
<path d="M83.2997 79.6487C75.9522 75.4066 66.3221 76.7244 56.6919 82.2844L37.8774 71.4218C47.5075 65.8619 57.1377 64.544 64.4852 68.7861L83.2997 79.6487Z" fill="#F2C4AA"/>
</svg>
