<svg xmlns="http://www.w3.org/2000/svg" width="124" height="105" viewBox="0 0 124 105" fill="none">
<g id="goldenhawk">
<path id="shadow" d="M93.5711 83.1512C77.2805 83.3705 68.9482 98.5948 51.3608 92.1516C33.7734 85.7085 25.9873 75.0792 33.9701 68.4103C41.9529 61.7415 67.5357 52.5733 85.1231 59.0164C86.2949 65.0064 111.785 71.8054 113.423 75.9836C120.074 81.5688 112.932 82.8905 93.5711 83.1512Z" fill="#BCBCBC" fill-opacity="0.5"/>
<path id="gymbro hawk's tail" d="M107.511 66.0848C99.1847 65.0089 83.6932 52.8114 76.9883 46.8472C77.573 56.4757 79.6196 75.1482 83.128 72.8092C87.5135 69.8856 99.7928 72.8677 110.493 76.8439C119.054 80.0248 119.869 77.7795 119.206 76.2592C118.777 73.316 115.838 67.1607 107.511 66.0848Z" fill="#F0E698"/>
<path id="Vector 80" d="M75.1744 92.3809C71.522 93.2758 67.035 87.3601 65.2481 84.2904L82.3906 77.7123C81.5071 82.229 78.8269 91.4861 75.1744 92.3809Z" fill="#E3C079"/>
<path id="Vector 83" d="M38.2418 80.551C37.4038 78.8094 41.6473 75.026 43.8738 73.3521L49.4746 78.5195C46.0795 79.9224 39.0799 82.2926 38.2418 80.551Z" fill="#E3C079"/>
<path id="left arm" d="M40.8771 36.5541C44.6945 40.0905 41.7904 43.4385 39.8612 44.6704C32.8609 52.7867 13.3194 30.5556 5.89617 26.569C-0.0424357 23.3798 5.9878 21.8493 9.74525 21.4827C23.0521 21.0428 36.0443 31.347 40.8771 36.5541Z" fill="#E3C079"/>
<path id="Vector 79" d="M54.6925 82.2378C27.0976 69.5326 30.9646 47.2349 36.3475 37.6742C40.8813 25.8546 54.212 8.1989 71.2637 32.1331C92.5783 62.0509 89.186 98.1193 54.6925 82.2378Z" fill="#F1CE89"/>
<path id="Vector 78" d="M31.2861 18.8073C31.9391 8.01817 42.4677 4.74649 47.6504 4.4593C49.556 4.2226 52.3511 4.68583 53.5104 4.94703C59.0605 6.71345 60.908 9.08891 64.3287 18.3258C67.1793 26.0231 69.796 30.3717 71.2341 32.2166C71.4767 32.4673 71.7156 32.738 71.9479 33.03C71.7622 32.8545 71.5217 32.5857 71.2341 32.2166C69.3365 30.2563 67.2149 29.5223 66.3038 29.4016C67.685 33.2376 67.5734 36.0077 67.345 36.9133C65.6241 34.126 63.5509 33.0525 62.7293 32.8641C59.2547 35.3809 59.4893 40.1483 60.041 42.2174C58.1559 38.0073 54.2257 36.4701 52.4963 36.2277C51.0802 37.4834 50.6611 42.643 50.5779 45.0829C50.6169 45.3776 50.6328 45.6554 50.6208 45.9102C50.5776 46.8294 50.5368 46.2878 50.5779 45.0829C50.2765 42.8044 48.5925 39.5129 47.6886 37.9983L45.7484 44.7486C43.8143 39.6456 38.6277 37.7822 36.2761 37.4885C37.3132 35.6085 35.5568 33.1681 34.5489 32.1829C30.8231 28.1112 30.8213 21.5693 31.2861 18.8073Z" fill="#F0E698"/>
<ellipse id="Ellipse 290" cx="1.62595" cy="2.14649" rx="1.62595" ry="2.14649" transform="matrix(0.539632 0.841901 -0.27624 0.961089 50.3887 19.7417)" fill="#4A5051"/>
<ellipse id="Ellipse 291" cx="1.62595" cy="2.14649" rx="1.62595" ry="2.14649" transform="matrix(0.539632 0.841901 -0.27624 0.961089 36.5732 18.4346)" fill="#4A5051"/>
<path id="Vector 82" d="M45.8178 24.8861C44.9465 21.999 42.182 22.2464 40.9086 22.731C36.8741 24.931 35.3286 30.6781 35.0602 33.2766C35.3834 33.0151 36.7709 32.5031 39.7352 32.5471C42.6995 32.591 44.4803 31.944 45.0001 31.615C45.6357 30.575 46.689 27.7733 45.8178 24.8861Z" fill="#D59B24"/>
<path id="right arm" d="M61.4055 48.2792C60.7685 54.7322 65.7831 55.0317 68.37 54.3748C84.3138 47.3997 92.6089 33.7079 94.7635 27.7339C98.4272 18.5312 102.054 2.81371 91.9882 15.0397C87.862 20.0514 61.585 37.6354 61.4055 48.2792Z" fill="#E3C079"/>
</g>
</svg>