<svg xmlns="http://www.w3.org/2000/svg" width="152" height="90" viewBox="0 0 152 90" fill="none">
<path d="M16.6087 73.4613C25.7018 74.4631 36.0393 86.6299 46.1214 83.9353C63.6938 78.6249 54.689 72.5398 50.4936 68.3398C46.2983 64.1398 32.369 57.5786 22.2869 60.2732C21.3944 63.5962 6.88268 66.0661 5.80183 68.3398C1.86418 71.1388 5.80184 72.2707 16.6087 73.4613Z" fill="#BCBCBC" fill-opacity="0.5"/>
<path d="M10.9607 63.2945C15.9361 62.6516 25.1928 55.3632 29.1992 51.7993C28.8498 57.5527 27.6269 68.7101 25.5305 67.3125C22.9101 65.5656 15.5727 67.3475 9.17876 69.7234C4.06358 71.6241 3.57676 70.2824 3.97274 69.374C4.22896 67.6154 5.98527 63.9374 10.9607 63.2945Z" fill="#F0E698"/>
<path d="M30.2824 79.0071C32.4649 79.5418 35.146 76.007 36.2137 74.1727L25.9705 70.2421C26.4984 72.941 28.1 78.4724 30.2824 79.0071Z" fill="#E3C079"/>
<path d="M52.3518 71.9379C52.8526 70.8972 50.3169 68.6365 48.9865 67.6363L45.6398 70.724C47.6685 71.5622 51.851 72.9785 52.3518 71.9379Z" fill="#E3C079"/>
<path d="M48.9316 48.0286C47.999 50.9949 50.4981 51.8713 51.8642 51.9387C57.9018 54.0751 61.4522 36.7489 64.1223 32.4804C66.2583 29.0656 62.6759 30.0587 60.6177 30.9821C53.583 34.6977 49.8959 43.8946 48.9316 48.0286Z" fill="#E3C079"/>
<path d="M42.5213 72.9461C59.0101 65.3543 56.6995 52.0307 53.4831 46.3179C50.7739 39.2553 42.8084 28.7054 32.6195 43.0069C19.8832 60.8838 21.9102 82.4359 42.5213 72.9461Z" fill="#F1CE89"/>
<path d="M49.4002 27.3429C45.7705 22.0006 39.3637 23.5349 36.614 24.9698C35.563 25.4301 34.2688 26.5215 33.753 27.0096C31.4417 29.6115 31.2181 31.3957 32.2814 37.1845C33.1675 42.0085 33.1512 45.0411 32.9759 46.4278C32.9278 46.6306 32.8877 46.8426 32.8576 47.0635C32.8994 46.9167 32.9408 46.7051 32.9759 46.4278C33.352 44.8415 34.2176 43.8167 34.6487 43.4765C35.1106 45.8685 36.0137 47.2573 36.4075 47.6527C36.4403 45.6956 37.1775 44.5111 37.5419 44.1636C40.095 44.3953 41.4302 46.9157 41.7786 48.1469C41.4614 45.4089 43.0107 43.4193 43.825 42.7667C44.9357 42.9793 46.7264 45.5015 47.5141 46.7293C47.5841 46.8926 47.6607 47.0401 47.7447 47.1674C48.0475 47.6263 47.9031 47.3356 47.5141 46.7293C46.9732 45.467 46.8331 43.2621 46.835 42.2082L49.8926 45.083C49.3279 41.8714 51.423 39.3307 52.5411 38.4618C51.4344 37.8128 51.5915 36.0231 51.8083 35.2093C52.4788 31.9803 50.4823 28.6196 49.4002 27.3429Z" fill="#F0E698"/>
<ellipse cx="0.971561" cy="1.2826" rx="0.971561" ry="1.2826" transform="matrix(-0.0336602 0.999433 0.728557 0.684985 40.1445 30.8115)" fill="#4A5051"/>
<ellipse cx="0.971561" cy="1.2826" rx="0.971561" ry="1.2826" transform="matrix(-0.0336602 0.999433 0.728557 0.684985 46.3916 27.1123)" fill="#4A5051"/>
<path d="M43.4021 33.0251C42.9681 31.2762 44.4636 30.5591 45.2655 30.4192C48.0096 30.3174 50.5582 32.7973 51.4894 34.05C51.2436 34.0144 50.3746 34.1751 48.8654 35.1028C47.3563 36.0305 46.2441 36.2419 45.8766 36.2316C45.2326 35.8915 43.8361 34.7741 43.4021 33.0251Z" fill="#D59B24"/>
<path d="M56.3828 29.3756C56.3828 28.9915 56.6525 28.5245 56.9851 28.3324L62.0789 25.3913C62.7441 25.0072 63.2833 25.3185 63.2833 26.0867L63.2829 35.8787C63.2829 36.6469 62.7436 37.581 62.0784 37.9651L57.5869 40.5585C56.9216 40.9426 56.3824 40.6313 56.3824 39.8631L56.3828 29.3756Z" fill="#27292E"/>
<ellipse cx="0.860518" cy="1.26846" rx="0.860518" ry="1.26846" transform="matrix(0.866007 -0.500033 -3.76613e-05 1 59.0879 32.1367)" fill="#5F6364"/>
<path d="M30.9608 51.7884C29.5582 55.4003 32.3963 56.3777 33.9907 56.415C44.2872 54.9599 51.2596 48.4111 53.4588 45.3186C57.0449 40.6101 61.6555 32.1459 53.8993 37.5668C50.7199 39.7889 32.7729 45.6911 30.9608 51.7884Z" fill="#E3C079"/>
<path d="M134.873 54.2479C125.78 55.2497 115.442 67.4165 105.36 64.7219C87.7877 59.4115 96.7925 53.3264 100.988 49.1264C105.183 44.9264 119.112 38.3652 129.195 41.0598C130.087 44.3828 144.599 46.8527 145.68 49.1264C149.617 51.9254 145.68 53.0573 134.873 54.2479Z" fill="#BCBCBC" fill-opacity="0.5"/>
<path d="M140.521 44.0811C135.545 43.4382 126.289 36.1498 122.282 32.5859C122.632 38.3393 123.855 49.4967 125.951 48.0992C128.571 46.3522 135.909 48.1341 142.303 50.51C147.418 52.4107 147.905 51.069 147.509 50.1606C147.252 48.402 145.496 44.724 140.521 44.0811Z" fill="#F0E698"/>
<path d="M121.199 59.7937C119.017 60.3284 116.335 56.7936 115.268 54.9594L125.511 51.0287C124.983 53.7276 123.381 59.259 121.199 59.7937Z" fill="#E3C079"/>
<path d="M99.1297 52.7245C98.6289 51.6838 101.165 49.4231 102.495 48.4229L105.842 51.5106C103.813 52.3489 99.6304 53.7652 99.1297 52.7245Z" fill="#E3C079"/>
<path d="M102.55 28.8153C103.482 31.7815 100.983 32.6579 99.6173 32.7253C93.5797 34.8618 90.0292 17.5355 87.3592 13.267C85.2231 9.85222 88.8055 10.8453 90.8637 11.7687C97.8984 15.4843 101.586 24.6812 102.55 28.8153Z" fill="#E3C079"/>
<path d="M108.96 53.7328C92.4713 46.1409 94.782 32.8173 97.9984 27.1045C100.708 20.0419 108.673 9.492 118.862 23.7935C131.598 41.6704 129.571 63.2225 108.96 53.7328Z" fill="#F1CE89"/>
<path d="M102.081 8.12951C105.711 2.78722 112.118 4.32152 114.867 5.75645C115.918 6.21671 117.213 7.30807 117.728 7.79622C120.04 10.3981 120.263 12.1823 119.2 17.9712C118.314 22.7951 118.33 25.8277 118.506 27.2144C118.554 27.4172 118.594 27.6292 118.624 27.8501C118.582 27.7033 118.541 27.4918 118.506 27.2144C118.129 25.6281 117.264 24.6033 116.833 24.2631C116.371 26.6552 115.468 28.0439 115.074 28.4393C115.041 26.4822 114.304 25.2978 113.94 24.9502C111.386 25.182 110.051 27.7023 109.703 28.9335C110.02 26.1955 108.471 24.2059 107.656 23.5534C106.546 23.7659 104.755 26.2881 103.967 27.5159C103.897 27.6792 103.821 27.8268 103.737 27.954C103.434 28.4129 103.578 28.1222 103.967 27.5159C104.508 26.2536 104.648 24.0488 104.646 22.9949L101.589 25.8696C102.154 22.658 100.058 20.1173 98.9403 19.2484C100.047 18.5994 99.89 16.8097 99.6731 15.9959C99.0027 12.7669 100.999 9.40623 102.081 8.12951Z" fill="#F0E698"/>
<ellipse cx="0.971561" cy="1.2826" rx="0.971561" ry="1.2826" transform="matrix(0.0336602 0.999433 -0.728557 0.684985 111.337 11.5977)" fill="#4A5051"/>
<ellipse cx="0.971561" cy="1.2826" rx="0.971561" ry="1.2826" transform="matrix(0.0336602 0.999433 -0.728557 0.684985 105.09 7.89844)" fill="#4A5051"/>
<path d="M108.079 13.8112C108.513 12.0623 107.018 11.3453 106.216 11.2053C103.472 11.1035 100.923 13.5835 99.992 14.8362C100.238 14.8006 101.107 14.9613 102.616 15.8889C104.125 16.8166 105.237 17.028 105.605 17.0177C106.249 16.6776 107.645 15.5602 108.079 13.8112Z" fill="#D59B24"/>
<path d="M95.0987 10.1617C95.0986 9.77767 94.829 9.31062 94.4964 9.11857L89.4026 6.17741C88.7374 5.79331 88.1981 6.10465 88.1981 6.87281L88.1985 16.6649C88.1985 17.433 88.7378 18.3671 89.4031 18.7512L93.8946 21.3446C94.5598 21.7288 95.0991 21.4174 95.0991 20.6492L95.0987 10.1617Z" fill="#27292E"/>
<ellipse cx="0.860518" cy="1.26846" rx="0.860518" ry="1.26846" transform="matrix(-0.866007 -0.500033 3.76613e-05 1 92.3936 12.9229)" fill="#5F6364"/>
<path d="M120.521 32.5756C121.923 36.1874 119.085 37.1649 117.491 37.2021C107.194 35.747 100.222 29.1983 98.0227 26.1057C94.4366 21.3972 89.826 12.933 97.5821 18.3539C100.762 20.576 118.709 26.4782 120.521 32.5756Z" fill="#E3C079"/>
</svg>