<svg width="203" height="194" viewBox="0 0 203 194" fill="none" xmlns="http://www.w3.org/2000/svg">
<circle cx="40.5498" cy="40.5498" r="40.5498" transform="matrix(-0.866025 -0.5 0 1 70.6582 68.8615)" fill="#F8F1E6"/>
<path d="M70.6582 109.411C70.6582 119.789 67.2297 128.187 60.3726 132.146L77.9312 122.009C84.7883 118.05 88.2168 109.651 88.2168 99.2739L70.6582 109.411Z" fill="#F2C4AA"/>
<path d="M70.6582 109.413C70.6582 87.0178 54.9357 59.7856 35.541 48.5881L53.0996 38.4507C72.4943 49.6482 88.2168 76.8803 88.2168 99.2754L70.6582 109.413Z" fill="#F2C4AA"/>
<path d="M10.7085 46.1273C17.5655 42.1684 26.5528 43.3982 35.54 48.587L53.0986 38.4496C44.1114 33.2608 35.1241 32.0309 28.267 35.9898L10.7085 46.1273Z" fill="#F2C4AA"/>
<circle cx="64.4427" cy="64.4427" r="64.4427" transform="matrix(-0.866025 -0.5 0 1 144.025 64.5072)" fill="#F8F1E6"/>
<path d="M144.025 128.951C144.025 145.443 138.576 158.789 127.679 165.081L155.584 148.97C166.481 142.679 171.93 129.332 171.93 112.84L144.025 128.951Z" fill="#F2C4AA"/>
<path d="M144.025 128.949C144.025 93.3587 119.039 50.0807 88.2161 32.2853L116.121 16.1746C146.943 33.97 171.93 77.248 171.93 112.839L144.025 128.949Z" fill="#F2C4AA"/>
<path d="M48.7526 28.377C59.65 22.0854 73.9328 24.0399 88.2156 32.2861L116.12 16.1754C101.837 7.92925 87.5546 5.9747 76.6572 12.2663L48.7526 28.377Z" fill="#F2C4AA"/>
<circle cx="40.5498" cy="40.5498" r="40.5498" transform="matrix(-0.866025 -0.5 0 1 184.689 96.4511)" fill="#F8F1E6"/>
<path d="M184.689 137C184.689 147.378 181.261 155.776 174.404 159.735L191.962 149.598C198.82 145.639 202.248 137.241 202.248 126.863L184.689 137Z" fill="#F2C4AA"/>
<path d="M184.689 137.001C184.689 114.606 168.967 87.3737 149.572 76.1762L167.131 66.0387C186.526 77.2362 202.248 104.468 202.248 126.863L184.689 137.001Z" fill="#F2C4AA"/>
<path d="M124.741 73.7164C131.598 69.7574 140.585 70.9873 149.572 76.1761L167.131 66.0387C158.144 60.8499 149.156 59.62 142.299 63.5789L124.741 73.7164Z" fill="#F2C4AA"/>
</svg>
